<?xml version="1.0" encoding="utf-8" standalone="no"?>
<!DOCTYPE svg PUBLIC "-//W3C//DTD SVG 1.1//EN"
  "http://www.w3.org/Graphics/SVG/1.1/DTD/svg11.dtd">
<svg xmlns:xlink="http://www.w3.org/1999/xlink" width="198.4125pt" height="21.635122pt" viewBox="0 0 198.4125 21.635122" xmlns="http://www.w3.org/2000/svg" version="1.1">
 <metadata>
  <rdf:RDF xmlns:dc="http://purl.org/dc/elements/1.1/" xmlns:cc="http://creativecommons.org/ns#" xmlns:rdf="http://www.w3.org/1999/02/22-rdf-syntax-ns#">
   <cc:Work>
    <dc:type rdf:resource="http://purl.org/dc/dcmitype/StillImage"/>
    <dc:date>2024-08-02T02:01:24.987920</dc:date>
    <dc:format>image/svg+xml</dc:format>
    <dc:creator>
     <cc:Agent>
      <dc:title>Matplotlib v3.9.1, https://matplotlib.org/</dc:title>
     </cc:Agent>
    </dc:creator>
   </cc:Work>
  </rdf:RDF>
 </metadata>
 <defs>
  <style type="text/css">*{stroke-linejoin: round; stroke-linecap: butt}</style>
 </defs>
 <g id="figure_1">
  <g id="patch_1">
   <path d="M 0 21.635122 
L 198.4125 21.635122 
L 198.4125 0 
L 0 0 
L 0 21.635122 
z
" style="fill: none"/>
  </g>
  <g id="axes_1">
   <g id="text_1">
    <!-- dev183520 PDI -->
    <g style="fill: #ffffff" transform="translate(0 17.338811) scale(0.24 -0.24)">
     <defs>
      <path id="BlackOpsOne-Regular-64" d="M 2563 0 
L 2563 4584 
L 3944 4584 
L 3944 0 
L 2563 0 
z
M 1044 0 
L 297 747 
L 297 2572 
L 1044 3319 
L 2344 3319 
L 2344 2491 
L 1678 2491 
L 1678 775 
L 2344 775 
L 2344 328 
L 2016 0 
L 1044 0 
z
" transform="scale(0.015625)"/>
      <path id="BlackOpsOne-Regular-65" d="M 1125 0 
L 297 828 
L 297 2491 
L 1125 3319 
L 1678 3319 
L 1678 0 
L 1125 0 
z
M 1897 1331 
L 1897 1909 
L 2625 1909 
L 2625 2491 
L 1897 2491 
L 1897 3319 
L 3069 3319 
L 3897 2491 
L 3897 1331 
L 1897 1331 
z
M 1897 0 
L 1897 775 
L 3753 775 
L 3753 416 
L 3341 0 
L 1897 0 
z
" transform="scale(0.015625)"/>
      <path id="BlackOpsOne-Regular-76" d="M 1197 0 
L -44 3319 
L 1328 3319 
L 2509 0 
L 1197 0 
z
M 2650 184 
L 2031 1941 
L 2478 3319 
L 3769 3319 
L 2650 184 
z
" transform="scale(0.015625)"/>
      <path id="BlackOpsOne-Regular-31" d="M 1134 1019 
L 1134 3319 
L 444 3319 
L 444 3731 
L 856 4147 
L 2516 4147 
L 2516 1019 
L 1134 1019 
z
M 444 0 
L 444 828 
L 3206 828 
L 3206 0 
L 444 0 
z
" transform="scale(0.015625)"/>
      <path id="BlackOpsOne-Regular-38" d="M 1169 0 
L 338 828 
L 338 1691 
L 834 2100 
L 338 2506 
L 338 3319 
L 1169 4147 
L 2306 4147 
L 2306 3319 
L 1706 3319 
L 1706 2488 
L 2306 2488 
L 2306 1713 
L 1706 1713 
L 1706 828 
L 2306 828 
L 2306 0 
L 1169 0 
z
M 2525 0 
L 2525 828 
L 3166 828 
L 3166 1713 
L 2525 1713 
L 2525 2488 
L 3166 2488 
L 3166 3319 
L 2525 3319 
L 2525 4147 
L 3650 4147 
L 4478 3319 
L 4478 2513 
L 3984 2097 
L 4478 1681 
L 4478 825 
L 3650 0 
L 2525 0 
z
" transform="scale(0.015625)"/>
      <path id="BlackOpsOne-Regular-33" d="M 2950 0 
L 2950 1750 
L 1988 1750 
L 1988 2472 
L 2950 2472 
L 2950 4147 
L 3503 4147 
L 4334 3319 
L 4334 2503 
L 3844 2088 
L 4334 1666 
L 4334 825 
L 3503 0 
L 2950 0 
z
M 325 2659 
L 325 3319 
L 1153 4147 
L 2731 4147 
L 2731 3266 
L 1706 3266 
L 1706 2659 
L 325 2659 
z
M 1153 0 
L 325 828 
L 325 1469 
L 1706 1469 
L 1706 884 
L 2731 884 
L 2731 0 
L 1153 0 
z
" transform="scale(0.015625)"/>
      <path id="BlackOpsOne-Regular-35" d="M 334 1856 
L 334 4147 
L 4072 4147 
L 4072 3319 
L 1581 3319 
L 1581 1856 
L 334 1856 
z
M 2881 0 
L 2881 1856 
L 1800 1856 
L 1800 2631 
L 3434 2631 
L 4263 1800 
L 4263 828 
L 3434 0 
L 2881 0 
z
M 1166 0 
L 334 828 
L 334 1294 
L 1719 1294 
L 1719 828 
L 2663 828 
L 2663 0 
L 1166 0 
z
" transform="scale(0.015625)"/>
      <path id="BlackOpsOne-Regular-32" d="M 338 0 
L 338 1488 
L 1222 2319 
L 2856 2319 
L 2856 4147 
L 3409 4147 
L 4238 3319 
L 4238 2294 
L 3409 1466 
L 1719 1466 
L 1719 0 
L 338 0 
z
M 338 2797 
L 338 3319 
L 1169 4147 
L 2638 4147 
L 2638 3400 
L 1719 3400 
L 1719 2797 
L 338 2797 
z
M 1938 0 
L 1938 747 
L 4238 747 
L 4238 0 
L 1938 0 
z
" transform="scale(0.015625)"/>
      <path id="BlackOpsOne-Regular-30" d="M 1931 0 
L 1931 828 
L 2966 828 
L 2966 4147 
L 3519 4147 
L 4347 3319 
L 4347 828 
L 3519 0 
L 1931 0 
z
M 1169 0 
L 338 828 
L 338 3319 
L 1169 4147 
L 2753 4147 
L 2753 3319 
L 1719 3319 
L 1719 0 
L 1169 0 
z
" transform="scale(0.015625)"/>
      <path id="BlackOpsOne-Regular-20" transform="scale(0.015625)"/>
      <path id="BlackOpsOne-Regular-50" d="M 1941 1066 
L 1941 1897 
L 2944 1897 
L 2944 3319 
L 1941 3319 
L 1941 4147 
L 3491 4147 
L 4319 3319 
L 4319 1897 
L 3491 1066 
L 1941 1066 
z
M 366 0 
L 366 4147 
L 1722 4147 
L 1722 0 
L 366 0 
z
" transform="scale(0.015625)"/>
      <path id="BlackOpsOne-Regular-44" d="M 1966 0 
L 1966 828 
L 2991 828 
L 2991 3319 
L 1966 3319 
L 1966 4147 
L 3544 4147 
L 4375 3319 
L 4375 828 
L 3544 0 
L 1966 0 
z
M 366 0 
L 366 4147 
L 1747 4147 
L 1747 0 
L 366 0 
z
" transform="scale(0.015625)"/>
      <path id="BlackOpsOne-Regular-49" d="M 303 0 
L 303 884 
L 719 884 
L 719 3266 
L 303 3266 
L 303 4147 
L 2516 4147 
L 2516 3266 
L 2100 3266 
L 2100 884 
L 2516 884 
L 2516 0 
L 303 0 
z
" transform="scale(0.015625)"/>
     </defs>
     <use xlink:href="#BlackOpsOne-Regular-64"/>
     <use xlink:href="#BlackOpsOne-Regular-65" x="66.699219"/>
     <use xlink:href="#BlackOpsOne-Regular-76" x="131.689453"/>
     <use xlink:href="#BlackOpsOne-Regular-31" x="189.892578"/>
     <use xlink:href="#BlackOpsOne-Regular-38" x="246.875"/>
     <use xlink:href="#BlackOpsOne-Regular-33" x="322.119141"/>
     <use xlink:href="#BlackOpsOne-Regular-35" x="395.117188"/>
     <use xlink:href="#BlackOpsOne-Regular-32" x="468.261719"/>
     <use xlink:href="#BlackOpsOne-Regular-30" x="539.746094"/>
     <use xlink:href="#BlackOpsOne-Regular-20" x="612.939453"/>
     <use xlink:href="#BlackOpsOne-Regular-50" x="638.818359"/>
     <use xlink:href="#BlackOpsOne-Regular-44" x="710.107422"/>
     <use xlink:href="#BlackOpsOne-Regular-49" x="782.666016"/>
    </g>
   </g>
  </g>
 </g>
</svg>
