<?xml version="1.0" encoding="utf-8" standalone="no"?>
<!DOCTYPE svg PUBLIC "-//W3C//DTD SVG 1.1//EN"
  "http://www.w3.org/Graphics/SVG/1.1/DTD/svg11.dtd">
<svg xmlns:xlink="http://www.w3.org/1999/xlink" width="357.99pt" height="21.635122pt" viewBox="0 0 357.99 21.635122" xmlns="http://www.w3.org/2000/svg" version="1.1">
 <metadata>
  <rdf:RDF xmlns:dc="http://purl.org/dc/elements/1.1/" xmlns:cc="http://creativecommons.org/ns#" xmlns:rdf="http://www.w3.org/1999/02/22-rdf-syntax-ns#">
   <cc:Work>
    <dc:type rdf:resource="http://purl.org/dc/dcmitype/StillImage"/>
    <dc:date>2024-08-03T22:02:59.077078</dc:date>
    <dc:format>image/svg+xml</dc:format>
    <dc:creator>
     <cc:Agent>
      <dc:title>Matplotlib v3.9.1, https://matplotlib.org/</dc:title>
     </cc:Agent>
    </dc:creator>
   </cc:Work>
  </rdf:RDF>
 </metadata>
 <defs>
  <style type="text/css">*{stroke-linejoin: round; stroke-linecap: butt}</style>
 </defs>
 <g id="figure_1">
  <g id="patch_1">
   <path d="M 0 21.635122 
L 357.99 21.635122 
L 357.99 0 
L 0 0 
L 0 21.635122 
z
" style="fill: none"/>
  </g>
  <g id="axes_1">
   <g id="text_1">
    <!-- Matt's ESC (internal users) -->
    <g style="fill: #62d84e" transform="translate(0 17.338811) scale(0.24 -0.24)">
     <defs>
      <path id="BlackOpsOne-Regular-4d" d="M 2828 0 
L 369 4147 
L 1838 4147 
L 2950 2303 
L 3825 3803 
L 3825 1716 
L 2828 0 
z
M 4028 0 
L 4028 4147 
L 5409 4147 
L 5409 0 
L 4028 0 
z
M 366 0 
L 366 3763 
L 1656 1597 
L 1656 0 
L 366 0 
z
" transform="scale(0.015625)"/>
      <path id="BlackOpsOne-Regular-61" d="M 2513 0 
L 2513 2491 
L 547 2491 
L 547 2903 
L 963 3319 
L 3034 3319 
L 3863 2491 
L 3863 0 
L 2513 0 
z
M 825 0 
L 269 547 
L 269 1378 
L 825 1931 
L 2294 1931 
L 2294 1356 
L 1581 1356 
L 1581 775 
L 2294 775 
L 2294 409 
L 1881 0 
L 825 0 
z
" transform="scale(0.015625)"/>
      <path id="BlackOpsOne-Regular-74" d="M 1225 0 
L 394 828 
L 394 2491 
L 119 2491 
L 119 3319 
L 394 3319 
L 394 3678 
L 1775 4147 
L 1775 828 
L 2688 828 
L 2688 0 
L 1225 0 
z
M 1994 2491 
L 1994 3319 
L 2738 3319 
L 2738 2491 
L 1994 2491 
z
" transform="scale(0.015625)"/>
      <path id="BlackOpsOne-Regular-27" d="M 709 2075 
L 566 4147 
L 1850 4147 
L 1703 2075 
L 709 2075 
z
" transform="scale(0.015625)"/>
      <path id="BlackOpsOne-Regular-73" d="M 2513 0 
L 2513 1253 
L 1019 1253 
L 300 1944 
L 300 2575 
L 1047 3319 
L 1600 3319 
L 1600 2147 
L 3175 2147 
L 3894 1422 
L 3894 775 
L 3122 0 
L 2513 0 
z
M 2513 2450 
L 2513 2709 
L 1819 2709 
L 1819 3319 
L 3288 3319 
L 3781 2825 
L 3781 2450 
L 2513 2450 
z
M 872 0 
L 297 684 
L 297 950 
L 1681 950 
L 1681 609 
L 2294 609 
L 2294 0 
L 872 0 
z
" transform="scale(0.015625)"/>
      <path id="BlackOpsOne-Regular-20" transform="scale(0.015625)"/>
      <path id="BlackOpsOne-Regular-45" d="M 366 0 
L 366 4147 
L 1747 4147 
L 1747 2503 
L 3069 2503 
L 3069 1703 
L 1747 1703 
L 1747 0 
L 366 0 
z
M 2825 2947 
L 2825 3344 
L 1966 3344 
L 1966 4147 
L 4125 4147 
L 4125 2947 
L 2825 2947 
z
M 1966 0 
L 1966 828 
L 2744 828 
L 2744 1244 
L 4125 1244 
L 4125 0 
L 1966 0 
z
" transform="scale(0.015625)"/>
      <path id="BlackOpsOne-Regular-53" d="M 2928 0 
L 2928 1553 
L 1134 1553 
L 303 2384 
L 303 3319 
L 1134 4147 
L 1603 4147 
L 1603 2675 
L 3509 2675 
L 4313 1844 
L 4313 828 
L 3484 0 
L 2928 0 
z
M 2928 2984 
L 2928 3400 
L 1822 3400 
L 1822 4147 
L 3481 4147 
L 4200 3425 
L 4200 2984 
L 2928 2984 
z
M 1000 0 
L 303 828 
L 303 1244 
L 1684 1244 
L 1684 750 
L 2709 750 
L 2709 0 
L 1000 0 
z
" transform="scale(0.015625)"/>
      <path id="BlackOpsOne-Regular-43" d="M 1134 0 
L 303 828 
L 303 3319 
L 1134 4147 
L 1684 4147 
L 1684 0 
L 1134 0 
z
M 2822 2484 
L 2822 3319 
L 1903 3319 
L 1903 4147 
L 3375 4147 
L 4203 3319 
L 4203 2484 
L 2822 2484 
z
M 1903 0 
L 1903 828 
L 2822 828 
L 2822 1434 
L 4203 1434 
L 4203 828 
L 3375 0 
L 1903 0 
z
" transform="scale(0.015625)"/>
      <path id="BlackOpsOne-Regular-28" d="M 1547 -444 
L 744 388 
L 744 3763 
L 1547 4591 
L 2613 4591 
L 2613 3763 
L 2100 3763 
L 2100 388 
L 2613 388 
L 2613 -444 
L 1547 -444 
z
" transform="scale(0.015625)"/>
      <path id="BlackOpsOne-Regular-69" d="M 328 3731 
L 328 4613 
L 1713 4613 
L 1713 3731 
L 328 3731 
z
M 328 0 
L 328 3319 
L 1713 3319 
L 1713 0 
L 328 0 
z
" transform="scale(0.015625)"/>
      <path id="BlackOpsOne-Regular-6e" d="M 2538 0 
L 2538 2491 
L 1944 2491 
L 1944 2853 
L 2406 3319 
L 3175 3319 
L 3922 2572 
L 3922 0 
L 2538 0 
z
M 325 0 
L 325 3319 
L 1719 3319 
L 1719 0 
L 325 0 
z
" transform="scale(0.015625)"/>
      <path id="BlackOpsOne-Regular-65" d="M 1125 0 
L 297 828 
L 297 2491 
L 1125 3319 
L 1678 3319 
L 1678 0 
L 1125 0 
z
M 1897 1331 
L 1897 1909 
L 2625 1909 
L 2625 2491 
L 1897 2491 
L 1897 3319 
L 3069 3319 
L 3897 2491 
L 3897 1331 
L 1897 1331 
z
M 1897 0 
L 1897 775 
L 3753 775 
L 3753 416 
L 3341 0 
L 1897 0 
z
" transform="scale(0.015625)"/>
      <path id="BlackOpsOne-Regular-72" d="M 325 0 
L 325 3319 
L 1706 3319 
L 1706 0 
L 325 0 
z
M 2516 1684 
L 2516 2491 
L 1928 2491 
L 1928 2853 
L 2391 3319 
L 3228 3319 
L 3900 2544 
L 3900 1684 
L 2516 1684 
z
" transform="scale(0.015625)"/>
      <path id="BlackOpsOne-Regular-6c" d="M 1100 0 
L 325 775 
L 325 4584 
L 1706 4584 
L 1706 828 
L 2325 828 
L 2325 0 
L 1100 0 
z
" transform="scale(0.015625)"/>
      <path id="BlackOpsOne-Regular-75" d="M 1128 0 
L 297 828 
L 297 3319 
L 1678 3319 
L 1678 828 
L 2294 828 
L 2294 416 
L 1894 0 
L 1128 0 
z
M 2513 0 
L 2513 3319 
L 3894 3319 
L 3894 0 
L 2513 0 
z
" transform="scale(0.015625)"/>
      <path id="BlackOpsOne-Regular-29" d="M 447 -444 
L 447 388 
L 959 388 
L 959 3763 
L 447 3763 
L 447 4591 
L 1513 4591 
L 2316 3763 
L 2316 388 
L 1513 -444 
L 447 -444 
z
" transform="scale(0.015625)"/>
     </defs>
     <use xlink:href="#BlackOpsOne-Regular-4d"/>
     <use xlink:href="#BlackOpsOne-Regular-61" x="90.234375"/>
     <use xlink:href="#BlackOpsOne-Regular-74" x="155.224609"/>
     <use xlink:href="#BlackOpsOne-Regular-74" x="200.683594"/>
     <use xlink:href="#BlackOpsOne-Regular-27" x="246.142578"/>
     <use xlink:href="#BlackOpsOne-Regular-73" x="283.886719"/>
     <use xlink:href="#BlackOpsOne-Regular-20" x="348.095703"/>
     <use xlink:href="#BlackOpsOne-Regular-45" x="373.974609"/>
     <use xlink:href="#BlackOpsOne-Regular-53" x="443.066406"/>
     <use xlink:href="#BlackOpsOne-Regular-43" x="515.185547"/>
     <use xlink:href="#BlackOpsOne-Regular-20" x="585.498047"/>
     <use xlink:href="#BlackOpsOne-Regular-28" x="611.376953"/>
     <use xlink:href="#BlackOpsOne-Regular-69" x="659.130859"/>
     <use xlink:href="#BlackOpsOne-Regular-6e" x="691.015625"/>
     <use xlink:href="#BlackOpsOne-Regular-74" x="757.226562"/>
     <use xlink:href="#BlackOpsOne-Regular-65" x="802.685547"/>
     <use xlink:href="#BlackOpsOne-Regular-72" x="867.675781"/>
     <use xlink:href="#BlackOpsOne-Regular-6e" x="929.199219"/>
     <use xlink:href="#BlackOpsOne-Regular-61" x="995.410156"/>
     <use xlink:href="#BlackOpsOne-Regular-6c" x="1060.400391"/>
     <use xlink:href="#BlackOpsOne-Regular-20" x="1097.167969"/>
     <use xlink:href="#BlackOpsOne-Regular-75" x="1123.046875"/>
     <use xlink:href="#BlackOpsOne-Regular-73" x="1188.964844"/>
     <use xlink:href="#BlackOpsOne-Regular-65" x="1253.173828"/>
     <use xlink:href="#BlackOpsOne-Regular-72" x="1318.164062"/>
     <use xlink:href="#BlackOpsOne-Regular-73" x="1379.6875"/>
     <use xlink:href="#BlackOpsOne-Regular-29" x="1443.896484"/>
    </g>
   </g>
  </g>
 </g>
</svg>
