<?xml version="1.0" encoding="utf-8" standalone="no"?>
<!DOCTYPE svg PUBLIC "-//W3C//DTD SVG 1.1//EN"
  "http://www.w3.org/Graphics/SVG/1.1/DTD/svg11.dtd">
<svg xmlns:xlink="http://www.w3.org/1999/xlink" width="1176pt" height="24pt" viewBox="0 0 1176 24" xmlns="http://www.w3.org/2000/svg" version="1.1">
 <metadata>
  <rdf:RDF xmlns:dc="http://purl.org/dc/elements/1.1/" xmlns:cc="http://creativecommons.org/ns#" xmlns:rdf="http://www.w3.org/1999/02/22-rdf-syntax-ns#">
   <cc:Work>
    <dc:type rdf:resource="http://purl.org/dc/dcmitype/StillImage"/>
    <dc:date>2024-08-03T21:46:02.813325</dc:date>
    <dc:format>image/svg+xml</dc:format>
    <dc:creator>
     <cc:Agent>
      <dc:title>Matplotlib v3.9.1, https://matplotlib.org/</dc:title>
     </cc:Agent>
    </dc:creator>
   </cc:Work>
  </rdf:RDF>
 </metadata>
 <defs>
  <style type="text/css">*{stroke-linejoin: round; stroke-linecap: butt}</style>
 </defs>
 <g id="figure_1">
  <g id="patch_1">
   <path d="M 0 24 
L 1176 24 
L 1176 0 
L 0 0 
L 0 24 
z
" style="fill: none"/>
  </g>
  <g id="axes_1">
   <g id="text_1">
    <!-- Matt's Employee ServiceCenter (internal IT users) -->
    <g style="fill: #62d84e" transform="translate(0 24) scale(0.24 -0.24)">
     <defs>
      <path id="PressStart2P-Regular-4d" d="M 0 800 
L 0 6400 
L 1600 6400 
L 1600 5600 
L 2400 5600 
L 2400 4800 
L 3200 4800 
L 3200 5600 
L 4000 5600 
L 4000 6400 
L 5600 6400 
L 5600 800 
L 4000 800 
L 4000 4000 
L 3200 4000 
L 3200 2400 
L 2400 2400 
L 2400 4000 
L 1600 4000 
L 1600 800 
L 0 800 
z
" transform="scale(0.015625)"/>
      <path id="PressStart2P-Regular-61" d="M 800 800 
L 800 1600 
L 0 1600 
L 0 2400 
L 800 2400 
L 800 3200 
L 4000 3200 
L 4000 4000 
L 800 4000 
L 800 4800 
L 4800 4800 
L 4800 4000 
L 5600 4000 
L 5600 800 
L 800 800 
z
M 1600 1600 
L 4000 1600 
L 4000 2400 
L 1600 2400 
L 1600 1600 
z
" transform="scale(0.015625)"/>
      <path id="PressStart2P-Regular-74" d="M 2400 800 
L 2400 4000 
L 800 4000 
L 800 4800 
L 2400 4800 
L 2400 6400 
L 4000 6400 
L 4000 4800 
L 5600 4800 
L 5600 4000 
L 4000 4000 
L 4000 800 
L 2400 800 
z
" transform="scale(0.015625)"/>
      <path id="PressStart2P-Regular-27" d="M 1600 4000 
L 1600 6400 
L 3200 6400 
L 3200 4000 
L 1600 4000 
z
" transform="scale(0.015625)"/>
      <path id="PressStart2P-Regular-73" d="M 0 800 
L 0 1600 
L 4000 1600 
L 4000 2400 
L 800 2400 
L 800 3200 
L 0 3200 
L 0 4000 
L 800 4000 
L 800 4800 
L 4800 4800 
L 4800 4000 
L 1600 4000 
L 1600 3200 
L 4800 3200 
L 4800 2400 
L 5600 2400 
L 5600 1600 
L 4800 1600 
L 4800 800 
L 0 800 
z
" transform="scale(0.015625)"/>
      <path id="PressStart2P-Regular-20" transform="scale(0.015625)"/>
      <path id="PressStart2P-Regular-45" d="M 0 800 
L 0 6400 
L 5600 6400 
L 5600 5600 
L 1600 5600 
L 1600 4000 
L 4800 4000 
L 4800 3200 
L 1600 3200 
L 1600 1600 
L 5600 1600 
L 5600 800 
L 0 800 
z
" transform="scale(0.015625)"/>
      <path id="PressStart2P-Regular-6d" d="M 0 800 
L 0 4800 
L 4800 4800 
L 4800 4000 
L 5600 4000 
L 5600 800 
L 4000 800 
L 4000 4000 
L 3200 4000 
L 3200 800 
L 1600 800 
L 1600 4000 
L 800 4000 
L 800 800 
L 0 800 
z
" transform="scale(0.015625)"/>
      <path id="PressStart2P-Regular-70" d="M 0 0 
L 0 4800 
L 4800 4800 
L 4800 4000 
L 5600 4000 
L 5600 2400 
L 4800 2400 
L 4800 1600 
L 1600 1600 
L 1600 0 
L 0 0 
z
M 1600 2400 
L 4000 2400 
L 4000 4000 
L 1600 4000 
L 1600 2400 
z
" transform="scale(0.015625)"/>
      <path id="PressStart2P-Regular-6c" d="M 800 800 
L 800 1600 
L 2400 1600 
L 2400 5600 
L 1600 5600 
L 1600 6400 
L 4000 6400 
L 4000 1600 
L 5600 1600 
L 5600 800 
L 800 800 
z
" transform="scale(0.015625)"/>
      <path id="PressStart2P-Regular-6f" d="M 800 800 
L 800 1600 
L 0 1600 
L 0 4000 
L 800 4000 
L 800 4800 
L 4800 4800 
L 4800 4000 
L 5600 4000 
L 5600 1600 
L 4800 1600 
L 4800 800 
L 800 800 
z
M 1600 1600 
L 4000 1600 
L 4000 4000 
L 1600 4000 
L 1600 1600 
z
" transform="scale(0.015625)"/>
      <path id="PressStart2P-Regular-79" d="M 800 0 
L 800 800 
L 4000 800 
L 4000 1600 
L 800 1600 
L 800 2400 
L 0 2400 
L 0 4800 
L 1600 4800 
L 1600 2400 
L 4000 2400 
L 4000 4800 
L 5600 4800 
L 5600 800 
L 4800 800 
L 4800 0 
L 800 0 
z
" transform="scale(0.015625)"/>
      <path id="PressStart2P-Regular-65" d="M 800 800 
L 800 1600 
L 0 1600 
L 0 4000 
L 800 4000 
L 800 4800 
L 4800 4800 
L 4800 4000 
L 5600 4000 
L 5600 2400 
L 1600 2400 
L 1600 1600 
L 4800 1600 
L 4800 800 
L 800 800 
z
M 1600 3200 
L 4000 3200 
L 4000 4000 
L 1600 4000 
L 1600 3200 
z
" transform="scale(0.015625)"/>
      <path id="PressStart2P-Regular-53" d="M 800 800 
L 800 1600 
L 0 1600 
L 0 2400 
L 1600 2400 
L 1600 1600 
L 4000 1600 
L 4000 3200 
L 800 3200 
L 800 4000 
L 0 4000 
L 0 5600 
L 800 5600 
L 800 6400 
L 4800 6400 
L 4800 5600 
L 5600 5600 
L 5600 4800 
L 4000 4800 
L 4000 5600 
L 1600 5600 
L 1600 4000 
L 4800 4000 
L 4800 3200 
L 5600 3200 
L 5600 1600 
L 4800 1600 
L 4800 800 
L 800 800 
z
" transform="scale(0.015625)"/>
      <path id="PressStart2P-Regular-72" d="M 2400 4000 
L 3200 4000 
L 3200 3200 
L 2400 3200 
L 2400 800 
L 800 800 
L 800 4800 
L 2400 4800 
L 2400 4000 
z
M 5600 4800 
L 5600 4000 
L 3200 4000 
L 3200 4800 
L 5600 4800 
z
" transform="scale(0.015625)"/>
      <path id="PressStart2P-Regular-76" d="M 2400 800 
L 2400 1600 
L 1600 1600 
L 1600 2400 
L 800 2400 
L 800 4800 
L 2400 4800 
L 2400 2400 
L 4000 2400 
L 4000 4800 
L 5600 4800 
L 5600 2400 
L 4800 2400 
L 4800 1600 
L 4000 1600 
L 4000 800 
L 2400 800 
z
" transform="scale(0.015625)"/>
      <path id="PressStart2P-Regular-69" d="M 2400 5600 
L 2400 6400 
L 4000 6400 
L 4000 5600 
L 2400 5600 
z
M 800 800 
L 800 1600 
L 2400 1600 
L 2400 4000 
L 1600 4000 
L 1600 4800 
L 4000 4800 
L 4000 1600 
L 5600 1600 
L 5600 800 
L 800 800 
z
" transform="scale(0.015625)"/>
      <path id="PressStart2P-Regular-63" d="M 800 800 
L 800 1600 
L 0 1600 
L 0 4000 
L 800 4000 
L 800 4800 
L 5600 4800 
L 5600 4000 
L 1600 4000 
L 1600 1600 
L 5600 1600 
L 5600 800 
L 800 800 
z
" transform="scale(0.015625)"/>
      <path id="PressStart2P-Regular-43" d="M 1600 800 
L 1600 1600 
L 800 1600 
L 800 2400 
L 0 2400 
L 0 4800 
L 800 4800 
L 800 5600 
L 1600 5600 
L 1600 6400 
L 4800 6400 
L 4800 5600 
L 5600 5600 
L 5600 4800 
L 4000 4800 
L 4000 5600 
L 2400 5600 
L 2400 4800 
L 1600 4800 
L 1600 2400 
L 2400 2400 
L 2400 1600 
L 4000 1600 
L 4000 2400 
L 5600 2400 
L 5600 1600 
L 4800 1600 
L 4800 800 
L 1600 800 
z
" transform="scale(0.015625)"/>
      <path id="PressStart2P-Regular-6e" d="M 0 800 
L 0 4800 
L 4800 4800 
L 4800 4000 
L 5600 4000 
L 5600 800 
L 4000 800 
L 4000 4000 
L 1600 4000 
L 1600 800 
L 0 800 
z
" transform="scale(0.015625)"/>
      <path id="PressStart2P-Regular-28" d="M 3200 800 
L 3200 1600 
L 2400 1600 
L 2400 2400 
L 1600 2400 
L 1600 4800 
L 2400 4800 
L 2400 5600 
L 3200 5600 
L 3200 6400 
L 4800 6400 
L 4800 5600 
L 4000 5600 
L 4000 4800 
L 3200 4800 
L 3200 2400 
L 4000 2400 
L 4000 1600 
L 4800 1600 
L 4800 800 
L 3200 800 
z
" transform="scale(0.015625)"/>
      <path id="PressStart2P-Regular-49" d="M 800 800 
L 800 1600 
L 2400 1600 
L 2400 5600 
L 800 5600 
L 800 6400 
L 5600 6400 
L 5600 5600 
L 4000 5600 
L 4000 1600 
L 5600 1600 
L 5600 800 
L 800 800 
z
" transform="scale(0.015625)"/>
      <path id="PressStart2P-Regular-54" d="M 2400 800 
L 2400 5600 
L 800 5600 
L 800 6400 
L 5600 6400 
L 5600 5600 
L 4000 5600 
L 4000 800 
L 2400 800 
z
" transform="scale(0.015625)"/>
      <path id="PressStart2P-Regular-75" d="M 800 800 
L 800 1600 
L 0 1600 
L 0 4800 
L 1600 4800 
L 1600 1600 
L 4000 1600 
L 4000 4800 
L 5600 4800 
L 5600 800 
L 800 800 
z
" transform="scale(0.015625)"/>
      <path id="PressStart2P-Regular-29" d="M 800 800 
L 800 1600 
L 1600 1600 
L 1600 2400 
L 2400 2400 
L 2400 4800 
L 1600 4800 
L 1600 5600 
L 800 5600 
L 800 6400 
L 2400 6400 
L 2400 5600 
L 3200 5600 
L 3200 4800 
L 4000 4800 
L 4000 2400 
L 3200 2400 
L 3200 1600 
L 2400 1600 
L 2400 800 
L 800 800 
z
" transform="scale(0.015625)"/>
     </defs>
     <use xlink:href="#PressStart2P-Regular-4d"/>
     <use xlink:href="#PressStart2P-Regular-61" x="99.999985"/>
     <use xlink:href="#PressStart2P-Regular-74" x="199.999969"/>
     <use xlink:href="#PressStart2P-Regular-74" x="299.999954"/>
     <use xlink:href="#PressStart2P-Regular-27" x="399.999939"/>
     <use xlink:href="#PressStart2P-Regular-73" x="499.999924"/>
     <use xlink:href="#PressStart2P-Regular-20" x="599.999908"/>
     <use xlink:href="#PressStart2P-Regular-45" x="699.999893"/>
     <use xlink:href="#PressStart2P-Regular-6d" x="799.999878"/>
     <use xlink:href="#PressStart2P-Regular-70" x="899.999863"/>
     <use xlink:href="#PressStart2P-Regular-6c" x="999.999847"/>
     <use xlink:href="#PressStart2P-Regular-6f" x="1099.999832"/>
     <use xlink:href="#PressStart2P-Regular-79" x="1199.999817"/>
     <use xlink:href="#PressStart2P-Regular-65" x="1299.999802"/>
     <use xlink:href="#PressStart2P-Regular-65" x="1399.999786"/>
     <use xlink:href="#PressStart2P-Regular-20" x="1499.999771"/>
     <use xlink:href="#PressStart2P-Regular-53" x="1599.999756"/>
     <use xlink:href="#PressStart2P-Regular-65" x="1699.999741"/>
     <use xlink:href="#PressStart2P-Regular-72" x="1799.999725"/>
     <use xlink:href="#PressStart2P-Regular-76" x="1899.99971"/>
     <use xlink:href="#PressStart2P-Regular-69" x="1999.999695"/>
     <use xlink:href="#PressStart2P-Regular-63" x="2099.99968"/>
     <use xlink:href="#PressStart2P-Regular-65" x="2199.999664"/>
     <use xlink:href="#PressStart2P-Regular-43" x="2299.999649"/>
     <use xlink:href="#PressStart2P-Regular-65" x="2399.999634"/>
     <use xlink:href="#PressStart2P-Regular-6e" x="2499.999619"/>
     <use xlink:href="#PressStart2P-Regular-74" x="2599.999603"/>
     <use xlink:href="#PressStart2P-Regular-65" x="2699.999588"/>
     <use xlink:href="#PressStart2P-Regular-72" x="2799.999573"/>
     <use xlink:href="#PressStart2P-Regular-20" x="2899.999557"/>
     <use xlink:href="#PressStart2P-Regular-28" x="2999.999542"/>
     <use xlink:href="#PressStart2P-Regular-69" x="3099.999527"/>
     <use xlink:href="#PressStart2P-Regular-6e" x="3199.999512"/>
     <use xlink:href="#PressStart2P-Regular-74" x="3299.999496"/>
     <use xlink:href="#PressStart2P-Regular-65" x="3399.999481"/>
     <use xlink:href="#PressStart2P-Regular-72" x="3499.999466"/>
     <use xlink:href="#PressStart2P-Regular-6e" x="3599.999451"/>
     <use xlink:href="#PressStart2P-Regular-61" x="3699.999435"/>
     <use xlink:href="#PressStart2P-Regular-6c" x="3799.99942"/>
     <use xlink:href="#PressStart2P-Regular-20" x="3899.999405"/>
     <use xlink:href="#PressStart2P-Regular-49" x="3999.99939"/>
     <use xlink:href="#PressStart2P-Regular-54" x="4099.999374"/>
     <use xlink:href="#PressStart2P-Regular-20" x="4199.999359"/>
     <use xlink:href="#PressStart2P-Regular-75" x="4299.999344"/>
     <use xlink:href="#PressStart2P-Regular-73" x="4399.999329"/>
     <use xlink:href="#PressStart2P-Regular-65" x="4499.999313"/>
     <use xlink:href="#PressStart2P-Regular-72" x="4599.999298"/>
     <use xlink:href="#PressStart2P-Regular-73" x="4699.999283"/>
     <use xlink:href="#PressStart2P-Regular-29" x="4799.999268"/>
    </g>
   </g>
  </g>
 </g>
</svg>
