<?xml version="1.0" encoding="utf-8" standalone="no"?>
<!DOCTYPE svg PUBLIC "-//W3C//DTD SVG 1.1//EN"
  "http://www.w3.org/Graphics/SVG/1.1/DTD/svg11.dtd">
<svg xmlns:xlink="http://www.w3.org/1999/xlink" width="111.6pt" height="21.635122pt" viewBox="0 0 111.6 21.635122" xmlns="http://www.w3.org/2000/svg" version="1.1">
 <metadata>
  <rdf:RDF xmlns:dc="http://purl.org/dc/elements/1.1/" xmlns:cc="http://creativecommons.org/ns#" xmlns:rdf="http://www.w3.org/1999/02/22-rdf-syntax-ns#">
   <cc:Work>
    <dc:type rdf:resource="http://purl.org/dc/dcmitype/StillImage"/>
    <dc:date>2024-08-02T02:02:10.457438</dc:date>
    <dc:format>image/svg+xml</dc:format>
    <dc:creator>
     <cc:Agent>
      <dc:title>Matplotlib v3.9.1, https://matplotlib.org/</dc:title>
     </cc:Agent>
    </dc:creator>
   </cc:Work>
  </rdf:RDF>
 </metadata>
 <defs>
  <style type="text/css">*{stroke-linejoin: round; stroke-linecap: butt}</style>
 </defs>
 <g id="figure_1">
  <g id="patch_1">
   <path d="M 0 21.635122 
L 111.6 21.635122 
L 111.6 0 
L 0 0 
L 0 21.635122 
z
" style="fill: none"/>
  </g>
  <g id="axes_1">
   <g id="text_1">
    <!-- SAM CIS -->
    <g style="fill: #0072c6" transform="translate(2.04375 17.338811) scale(0.24 -0.24)">
     <defs>
      <path id="BlackOpsOne-Regular-53" d="M 2928 0 
L 2928 1553 
L 1134 1553 
L 303 2384 
L 303 3319 
L 1134 4147 
L 1603 4147 
L 1603 2675 
L 3509 2675 
L 4313 1844 
L 4313 828 
L 3484 0 
L 2928 0 
z
M 2928 2984 
L 2928 3400 
L 1822 3400 
L 1822 4147 
L 3481 4147 
L 4200 3425 
L 4200 2984 
L 2928 2984 
z
M 1000 0 
L 303 828 
L 303 1244 
L 1684 1244 
L 1684 750 
L 2709 750 
L 2709 0 
L 1000 0 
z
" transform="scale(0.015625)"/>
      <path id="BlackOpsOne-Regular-41" d="M 3263 0 
L 3088 453 
L 1731 453 
L 2019 1275 
L 2769 1275 
L 1659 4147 
L 3006 4147 
L 4659 0 
L 3263 0 
z
M 28 0 
L 1509 3959 
L 2122 2313 
L 1363 0 
L 28 0 
z
" transform="scale(0.015625)"/>
      <path id="BlackOpsOne-Regular-4d" d="M 2828 0 
L 369 4147 
L 1838 4147 
L 2950 2303 
L 3825 3803 
L 3825 1716 
L 2828 0 
z
M 4028 0 
L 4028 4147 
L 5409 4147 
L 5409 0 
L 4028 0 
z
M 366 0 
L 366 3763 
L 1656 1597 
L 1656 0 
L 366 0 
z
" transform="scale(0.015625)"/>
      <path id="BlackOpsOne-Regular-20" transform="scale(0.015625)"/>
      <path id="BlackOpsOne-Regular-43" d="M 1134 0 
L 303 828 
L 303 3319 
L 1134 4147 
L 1684 4147 
L 1684 0 
L 1134 0 
z
M 2822 2484 
L 2822 3319 
L 1903 3319 
L 1903 4147 
L 3375 4147 
L 4203 3319 
L 4203 2484 
L 2822 2484 
z
M 1903 0 
L 1903 828 
L 2822 828 
L 2822 1434 
L 4203 1434 
L 4203 828 
L 3375 0 
L 1903 0 
z
" transform="scale(0.015625)"/>
      <path id="BlackOpsOne-Regular-49" d="M 303 0 
L 303 884 
L 719 884 
L 719 3266 
L 303 3266 
L 303 4147 
L 2516 4147 
L 2516 3266 
L 2100 3266 
L 2100 884 
L 2516 884 
L 2516 0 
L 303 0 
z
" transform="scale(0.015625)"/>
     </defs>
     <use xlink:href="#BlackOpsOne-Regular-53"/>
     <use xlink:href="#BlackOpsOne-Regular-41" x="72.119141"/>
     <use xlink:href="#BlackOpsOne-Regular-4d" x="145.361328"/>
     <use xlink:href="#BlackOpsOne-Regular-20" x="235.595703"/>
     <use xlink:href="#BlackOpsOne-Regular-43" x="261.474609"/>
     <use xlink:href="#BlackOpsOne-Regular-49" x="331.787109"/>
     <use xlink:href="#BlackOpsOne-Regular-53" x="375.830078"/>
    </g>
   </g>
  </g>
 </g>
</svg>
