<?xml version="1.0" encoding="utf-8" standalone="no"?>
<!DOCTYPE svg PUBLIC "-//W3C//DTD SVG 1.1//EN"
  "http://www.w3.org/Graphics/SVG/1.1/DTD/svg11.dtd">
<svg xmlns:xlink="http://www.w3.org/1999/xlink" width="547.92pt" height="21.635122pt" viewBox="0 0 547.92 21.635122" xmlns="http://www.w3.org/2000/svg" version="1.1">
 <metadata>
  <rdf:RDF xmlns:dc="http://purl.org/dc/elements/1.1/" xmlns:cc="http://creativecommons.org/ns#" xmlns:rdf="http://www.w3.org/1999/02/22-rdf-syntax-ns#">
   <cc:Work>
    <dc:type rdf:resource="http://purl.org/dc/dcmitype/StillImage"/>
    <dc:date>2024-09-15T23:18:52.850407</dc:date>
    <dc:format>image/svg+xml</dc:format>
    <dc:creator>
     <cc:Agent>
      <dc:title>Matplotlib v3.9.2, https://matplotlib.org/</dc:title>
     </cc:Agent>
    </dc:creator>
   </cc:Work>
  </rdf:RDF>
 </metadata>
 <defs>
  <style type="text/css">*{stroke-linejoin: round; stroke-linecap: butt}</style>
 </defs>
 <g id="figure_1">
  <g id="patch_1">
   <path d="M 0 21.635122 
L 547.92 21.635122 
L 547.92 0 
L 0 0 
L 0 21.635122 
z
" style="fill: none"/>
  </g>
  <g id="axes_1">
   <g id="text_1">
    <!-- Matt's 2024 SOW App - WIREFRAME - DEMO -->
    <g style="fill: #f76900" transform="translate(0 19.465061) scale(0.24 -0.24)">
     <defs>
      <path id="PermanentMarker-Regular-4d" d="M 563 -88 
Q 500 -88 369 -69 
Q 269 38 191 222 
Q 113 406 72 615 
Q 31 825 34 1034 
Q 38 1244 106 1406 
Q 106 1413 165 1556 
Q 225 1700 319 1922 
Q 413 2144 531 2416 
Q 650 2688 769 2950 
Q 888 3213 997 3428 
Q 1106 3644 1188 3763 
Q 1244 3850 1291 3931 
Q 1338 4013 1381 4081 
Q 1450 4194 1509 4291 
Q 1569 4388 1641 4466 
Q 1713 4544 1800 4603 
Q 1888 4663 2013 4706 
Q 2088 4675 2144 4640 
Q 2200 4606 2244 4556 
L 2263 4469 
Q 2275 4425 2303 4409 
Q 2331 4394 2350 4394 
Q 2431 4375 2490 4353 
Q 2550 4331 2619 4325 
Q 2644 4288 2666 4250 
Q 2688 4213 2713 4181 
Q 2838 4000 2919 3831 
Q 3000 3663 2919 3463 
L 2925 3394 
Q 2956 3350 2956 3312 
Q 2956 3275 2944 3206 
Q 2938 3156 2934 3097 
Q 2931 3038 2950 2969 
L 2994 2919 
Q 3094 2869 3188 2869 
Q 3313 2869 3413 2925 
Q 3513 2981 3600 3038 
Q 3669 3088 3728 3119 
Q 3788 3150 3844 3163 
Q 3975 3288 4084 3384 
Q 4194 3481 4313 3581 
Q 4538 3763 4750 3972 
Q 4963 4181 5088 4494 
Q 5156 4538 5244 4538 
Q 5331 4538 5418 4503 
Q 5506 4469 5594 4425 
Q 5613 4413 5628 4406 
Q 5644 4400 5663 4388 
Q 5663 4319 5719 4263 
Q 5750 4238 5762 4231 
Q 5775 4225 5788 4219 
Q 5838 4188 5872 4163 
Q 5906 4138 5925 4094 
Q 5981 3925 6113 3831 
Q 6100 3763 6119 3697 
Q 6138 3631 6163 3569 
Q 6175 3544 6181 3522 
Q 6188 3500 6200 3469 
L 6063 3481 
L 6081 3344 
Q 6100 3238 6065 3106 
Q 6031 2975 5988 2900 
Q 6000 2713 6000 2603 
Q 6000 2494 5987 2400 
Q 5975 2306 5947 2222 
Q 5919 2138 5875 2044 
Q 5900 1569 5765 1175 
Q 5631 781 5475 438 
Q 5456 394 5437 356 
Q 5419 319 5406 281 
Q 5338 263 5281 238 
Q 5225 213 5175 181 
Q 5106 138 5037 109 
Q 4969 81 4894 81 
Q 4594 300 4584 837 
Q 4575 1375 4813 2206 
Q 4856 2238 4850 2300 
L 4850 2369 
L 4788 2375 
Q 4756 2375 4731 2369 
Q 4706 2363 4694 2313 
Q 4494 2169 4259 2016 
Q 4025 1863 3775 1734 
Q 3525 1606 3265 1522 
Q 3006 1438 2763 1438 
Q 2138 1438 1819 2075 
L 1763 2188 
L 1700 2088 
Q 1681 2056 1634 1965 
Q 1588 1875 1541 1756 
Q 1494 1638 1459 1513 
Q 1425 1388 1438 1294 
Q 1363 1225 1291 1137 
Q 1219 1050 1188 938 
Q 1175 906 1181 878 
Q 1188 850 1200 819 
Q 1194 775 1175 756 
Q 1156 738 1131 719 
Q 1100 688 1069 653 
Q 1038 619 1013 575 
Q 1000 538 994 497 
Q 988 456 981 425 
Q 981 356 963 331 
Q 900 200 853 115 
Q 806 31 762 -12 
Q 719 -56 672 -72 
Q 625 -88 563 -88 
z
" transform="scale(0.015625)"/>
      <path id="PermanentMarker-Regular-61" d="M 3306 525 
Q 3269 419 3197 309 
Q 3125 200 3028 115 
Q 2931 31 2812 -25 
Q 2694 -81 2563 -88 
Q 2481 -69 2453 -47 
Q 2425 -25 2394 -6 
Q 2375 6 2359 15 
Q 2344 25 2331 31 
L 2256 63 
L 2281 144 
Q 2294 194 2275 222 
Q 2256 250 2200 300 
Q 2181 319 2162 337 
Q 2144 356 2131 375 
L 2025 494 
L 2194 538 
Q 2350 581 2403 650 
Q 2456 719 2444 881 
Q 2319 906 2234 887 
Q 2150 869 2063 844 
Q 1950 813 1834 791 
Q 1719 769 1581 769 
Q 1531 769 1487 772 
Q 1444 775 1394 781 
L 1331 794 
Q 1319 863 1306 872 
Q 1294 881 1281 894 
Q 1250 925 1215 978 
Q 1181 1031 1200 1113 
Q 1169 1169 1163 1225 
Q 1125 1150 1106 1069 
L 1081 1006 
L 1019 994 
Q 1006 988 1000 966 
Q 994 944 994 931 
L 963 825 
Q 950 813 937 803 
Q 925 794 913 781 
Q 900 725 881 669 
Q 863 613 844 563 
Q 813 481 791 403 
Q 769 325 775 250 
L 750 181 
Q 719 144 681 122 
Q 644 100 606 81 
Q 594 69 572 59 
Q 550 50 538 44 
L 519 -25 
L 444 -38 
Q 375 -50 347 -56 
Q 319 -63 281 -63 
L 219 -56 
Q 150 0 112 34 
Q 75 69 25 100 
Q -31 175 -37 212 
Q -44 250 -50 281 
Q -63 319 -66 344 
Q -69 369 -81 381 
L -163 456 
L -94 513 
L -88 619 
Q 38 938 178 1231 
Q 319 1525 469 1831 
Q 519 1931 566 2031 
Q 613 2131 663 2231 
Q 656 2250 656 2275 
Q 656 2300 669 2331 
Q 738 2438 781 2522 
Q 825 2606 869 2694 
Q 919 2800 972 2900 
Q 1025 3000 1106 3106 
L 1206 3150 
Q 1225 3156 1250 3165 
Q 1275 3175 1306 3175 
L 1400 3163 
Q 1575 3244 1706 3391 
Q 1838 3538 1975 3744 
L 2038 3831 
L 2119 3781 
Q 2150 3763 2206 3747 
Q 2263 3731 2325 3713 
Q 2438 3688 2538 3656 
Q 2638 3625 2700 3563 
Q 2738 3463 2744 3413 
Q 2750 3363 2763 3313 
Q 2781 3206 2797 3100 
Q 2813 2994 2819 2863 
Q 2850 2756 2872 2653 
Q 2894 2550 2913 2444 
Q 2944 2294 2975 2153 
Q 3006 2013 3056 1888 
Q 3106 1888 3119 1881 
Q 3150 1894 3184 1900 
Q 3219 1906 3263 1913 
L 3331 1919 
L 3356 1856 
Q 3363 1825 3419 1794 
Q 3500 1788 3537 1759 
Q 3575 1731 3606 1700 
Q 3631 1675 3656 1663 
L 3750 1625 
L 3700 1531 
Q 3638 1419 3522 1316 
Q 3406 1213 3263 1144 
Q 3269 1106 3272 1072 
Q 3275 1038 3288 1000 
Q 3306 894 3318 781 
Q 3331 669 3319 550 
L 3306 525 
z
M 1500 1606 
Q 1688 1619 1841 1634 
Q 1994 1650 2181 1688 
Q 2138 1875 2088 2078 
Q 2038 2281 1981 2481 
L 1944 2419 
Q 1819 2288 1703 2125 
Q 1588 1963 1506 1819 
Q 1469 1763 1431 1706 
Q 1394 1650 1363 1594 
Q 1400 1600 1434 1600 
Q 1469 1600 1500 1606 
z
" transform="scale(0.015625)"/>
      <path id="PermanentMarker-Regular-74" d="M 3556 3006 
Q 3400 3006 3219 2984 
Q 3038 2963 2863 2938 
Q 2738 2919 2622 2906 
Q 2506 2894 2413 2888 
Q 2369 2750 2325 2644 
Q 2281 2538 2231 2438 
Q 2181 2331 2140 2222 
Q 2100 2113 2063 1988 
Q 2000 1888 1959 1803 
Q 1919 1719 1894 1613 
Q 1819 1519 1781 1416 
Q 1744 1313 1725 1238 
L 1700 1163 
Q 1663 1125 1656 1103 
Q 1650 1081 1625 1063 
Q 1619 994 1581 925 
Q 1569 894 1562 866 
Q 1556 838 1556 825 
Q 1556 763 1525 744 
Q 1531 713 1525 678 
Q 1519 644 1513 613 
Q 1494 538 1500 494 
Q 1519 469 1534 450 
Q 1550 431 1556 400 
Q 1594 375 1613 369 
Q 1638 350 1688 325 
L 1744 263 
Q 1775 81 1688 -25 
Q 1594 -144 1369 -144 
L 1294 -144 
Q 1263 -113 1256 -94 
Q 1206 -75 1175 -62 
Q 1144 -50 1119 -13 
Q 1038 25 988 50 
L 931 81 
Q 931 150 931 156 
Q 888 213 866 281 
Q 844 350 831 419 
Q 819 475 803 525 
Q 788 575 763 613 
Q 750 975 831 1225 
Q 913 1475 1000 1706 
Q 1050 1831 1100 1959 
Q 1150 2088 1188 2225 
L 1244 2288 
Q 1288 2388 1316 2453 
Q 1344 2519 1375 2588 
Q 1394 2631 1409 2672 
Q 1425 2713 1438 2744 
Q 1400 2744 1369 2741 
Q 1338 2738 1306 2731 
Q 1269 2725 1237 2722 
Q 1206 2719 1175 2719 
Q 1131 2719 1113 2725 
Q 1044 2694 963 2694 
L 900 2694 
Q 881 2694 865 2697 
Q 850 2700 838 2700 
Q 775 2700 738 2681 
Q 663 2681 594 2681 
L 531 2681 
Q 519 2681 500 2678 
Q 481 2675 469 2675 
Q 425 2675 375 2684 
Q 325 2694 269 2725 
Q 194 2825 169 2831 
L 113 2906 
Q 106 2944 93 2978 
Q 81 3013 69 3056 
Q 44 3119 22 3191 
Q 0 3263 0 3363 
Q 6 3413 25 3438 
Q 44 3463 56 3481 
L 75 3575 
L 156 3569 
L 331 3569 
Q 531 3569 737 3584 
Q 944 3600 1163 3619 
Q 1288 3631 1416 3643 
Q 1544 3656 1681 3669 
Q 1706 3725 1731 3775 
L 1794 3806 
Q 1906 3813 1953 3778 
Q 2000 3744 2031 3713 
Q 2169 3725 2309 3740 
Q 2450 3756 2594 3781 
Q 2806 3813 3022 3838 
Q 3238 3863 3438 3863 
Q 3525 3863 3606 3856 
Q 3688 3850 3756 3838 
L 3819 3794 
Q 3838 3756 3872 3725 
Q 3906 3694 3944 3663 
Q 4019 3594 4094 3500 
Q 4169 3406 4150 3225 
Q 4100 3150 4075 3138 
L 4019 3063 
L 3956 3069 
Q 3919 3069 3887 3059 
Q 3856 3050 3825 3038 
Q 3800 3025 3775 3015 
Q 3750 3006 3719 3000 
Q 3663 3000 3628 3003 
Q 3594 3006 3556 3006 
z
" transform="scale(0.015625)"/>
      <path id="PermanentMarker-Regular-27" d="M 1588 4619 
Q 1663 4556 1731 4506 
Q 1800 4456 1856 4400 
Q 1913 4344 1941 4272 
Q 1969 4200 1956 4094 
Q 1906 4038 1837 3884 
Q 1769 3731 1669 3444 
Q 1619 3300 1572 3053 
Q 1525 2806 1459 2540 
Q 1394 2275 1300 2040 
Q 1206 1806 1063 1700 
Q 1006 1719 943 1731 
Q 881 1744 831 1769 
Q 781 1794 753 1841 
Q 725 1888 731 1975 
Q 588 2056 547 2172 
Q 506 2288 512 2416 
Q 519 2544 541 2672 
Q 563 2800 544 2906 
Q 606 3163 678 3459 
Q 750 3756 806 4031 
Q 863 4088 897 4172 
Q 931 4256 956 4356 
Q 981 4456 1009 4553 
Q 1038 4650 1088 4738 
Q 1119 4706 1194 4709 
Q 1269 4713 1288 4750 
Q 1325 4688 1425 4647 
Q 1525 4606 1588 4619 
z
" transform="scale(0.015625)"/>
      <path id="PermanentMarker-Regular-73" d="M 100 2813 
Q 144 2944 241 3037 
Q 338 3131 453 3197 
Q 569 3263 694 3306 
Q 819 3350 931 3381 
Q 1181 3488 1465 3584 
Q 1750 3681 2047 3756 
Q 2344 3831 2656 3853 
Q 2969 3875 3313 3775 
Q 3331 3713 3368 3656 
Q 3406 3600 3447 3544 
Q 3488 3488 3519 3434 
Q 3550 3381 3556 3325 
Q 3619 3269 3656 3203 
Q 3694 3138 3669 3031 
Q 3606 2981 3547 2940 
Q 3488 2900 3419 2869 
Q 3188 2925 2950 2906 
Q 2713 2888 2525 2875 
Q 2469 2931 2391 2931 
Q 2313 2931 2228 2906 
Q 2144 2881 2059 2856 
Q 1975 2831 1900 2844 
Q 1838 2794 1747 2778 
Q 1656 2763 1550 2750 
Q 1544 2719 1562 2709 
Q 1581 2700 1569 2669 
Q 1606 2625 1665 2606 
Q 1725 2588 1790 2569 
Q 1856 2550 1906 2522 
Q 1956 2494 1975 2431 
Q 2069 2431 2137 2387 
Q 2206 2344 2250 2281 
Q 2294 2219 2316 2147 
Q 2338 2075 2338 2019 
Q 2356 1969 2381 1975 
Q 2406 1981 2438 1950 
Q 2456 1869 2531 1784 
Q 2606 1700 2650 1600 
Q 2663 1444 2669 1322 
Q 2675 1200 2625 1075 
Q 2531 844 2365 662 
Q 2200 481 1990 340 
Q 1781 200 1543 100 
Q 1306 0 1081 -69 
Q 1056 -63 1031 -69 
Q 1006 -75 1019 -38 
Q 969 -81 909 -93 
Q 850 -106 781 -103 
Q 713 -100 641 -94 
Q 569 -88 506 -100 
Q 463 -56 428 -15 
Q 394 25 375 88 
Q 344 88 347 119 
Q 350 150 325 150 
Q 363 213 359 222 
Q 356 231 340 237 
Q 325 244 312 253 
Q 300 263 306 281 
Q 331 331 325 397 
Q 319 463 312 531 
Q 306 600 322 662 
Q 338 725 413 763 
Q 625 738 815 778 
Q 1006 819 1175 894 
Q 1344 969 1497 1056 
Q 1650 1144 1800 1213 
Q 1819 1269 1853 1306 
Q 1888 1344 1925 1375 
Q 1963 1406 1994 1443 
Q 2025 1481 2038 1538 
Q 2044 1581 2016 1590 
Q 1988 1600 1988 1638 
L 1919 1656 
Q 1800 1725 1650 1772 
Q 1500 1819 1394 1875 
Q 1325 1838 1265 1856 
Q 1206 1875 1113 1894 
Q 900 1906 703 1937 
Q 506 1969 325 2050 
Q 313 2081 294 2106 
Q 275 2131 225 2119 
Q 188 2169 150 2216 
Q 113 2263 81 2319 
Q 94 2394 100 2447 
Q 106 2500 63 2550 
Q 88 2631 100 2681 
Q 113 2731 100 2813 
z
" transform="scale(0.015625)"/>
      <path id="PermanentMarker-Regular-20" transform="scale(0.015625)"/>
      <path id="PermanentMarker-Regular-32" d="M 4394 1088 
Q 4544 1013 4547 900 
Q 4550 788 4478 691 
Q 4406 594 4290 544 
Q 4175 494 4081 550 
Q 4069 500 4028 484 
Q 3988 469 3975 425 
Q 3369 331 2737 193 
Q 2106 56 1475 -13 
Q 988 6 663 131 
Q 531 244 465 412 
Q 400 581 387 768 
Q 375 956 400 1134 
Q 425 1313 475 1444 
Q 800 1856 1153 2234 
Q 1506 2613 1956 2906 
Q 2088 3069 2263 3184 
Q 2438 3300 2581 3444 
Q 2394 3513 2187 3513 
Q 1981 3513 1781 3478 
Q 1581 3444 1406 3394 
Q 1231 3344 1100 3319 
Q 1000 3369 865 3375 
Q 731 3381 600 3425 
Q 525 3488 497 3588 
Q 469 3688 462 3794 
Q 456 3900 456 3997 
Q 456 4094 431 4156 
Q 481 4238 522 4319 
Q 563 4400 619 4469 
Q 913 4550 1269 4603 
Q 1625 4656 1987 4650 
Q 2350 4644 2687 4559 
Q 3025 4475 3288 4281 
Q 3319 4106 3419 4003 
Q 3519 3900 3663 3844 
Q 3731 3719 3781 3591 
Q 3831 3463 3850 3319 
Q 3725 2988 3497 2759 
Q 3269 2531 3038 2344 
Q 2913 2238 2769 2163 
Q 2625 2088 2519 1988 
Q 2494 1963 2487 1922 
Q 2481 1881 2456 1863 
Q 2344 1763 2206 1684 
Q 2069 1606 1956 1506 
Q 1875 1438 1822 1356 
Q 1769 1275 1681 1213 
Q 1794 1175 1903 1181 
Q 2013 1188 2128 1206 
Q 2244 1225 2366 1244 
Q 2488 1263 2619 1256 
Q 2800 1319 3019 1366 
Q 3238 1413 3456 1400 
Q 3644 1475 3816 1509 
Q 3988 1544 4144 1525 
Q 4225 1494 4265 1412 
Q 4306 1331 4394 1300 
Q 4375 1231 4384 1200 
Q 4394 1169 4394 1088 
z
" transform="scale(0.015625)"/>
      <path id="PermanentMarker-Regular-30" d="M 1400 -106 
Q 1156 -144 950 -81 
Q 744 -19 584 118 
Q 425 256 306 443 
Q 188 631 113 844 
Q 63 1288 144 1650 
Q 225 2013 378 2319 
Q 531 2625 725 2890 
Q 919 3156 1100 3400 
Q 1138 3381 1163 3403 
Q 1188 3425 1209 3456 
Q 1231 3488 1253 3519 
Q 1275 3550 1313 3563 
Q 1338 3619 1375 3659 
Q 1413 3700 1453 3737 
Q 1494 3775 1531 3812 
Q 1569 3850 1594 3906 
Q 1650 3919 1694 3953 
Q 1738 3988 1775 4025 
Q 1813 4063 1853 4097 
Q 1894 4131 1950 4150 
L 1950 4231 
Q 2075 4300 2131 4378 
Q 2188 4456 2269 4575 
Q 2331 4588 2368 4584 
Q 2406 4581 2475 4594 
Q 2531 4700 2575 4756 
Q 2619 4813 2706 4881 
Q 2788 4831 2888 4815 
Q 2988 4800 3056 4719 
Q 3063 4638 3097 4594 
Q 3131 4550 3175 4515 
Q 3219 4481 3256 4440 
Q 3294 4400 3306 4331 
Q 3331 4331 3340 4343 
Q 3350 4356 3375 4350 
Q 3388 4294 3400 4262 
Q 3413 4231 3425 4203 
Q 3438 4175 3453 4147 
Q 3469 4119 3481 4069 
Q 3450 3994 3428 3906 
Q 3406 3819 3338 3788 
Q 3338 3738 3372 3731 
Q 3406 3725 3413 3681 
Q 3413 3619 3394 3581 
Q 3556 3275 3684 2940 
Q 3813 2606 3975 2306 
Q 3963 2213 3984 2125 
Q 4006 2038 4034 1953 
Q 4063 1869 4091 1787 
Q 4119 1706 4131 1619 
Q 4144 1506 4134 1378 
Q 4125 1250 4090 1131 
Q 4056 1013 4000 913 
Q 3944 813 3869 763 
Q 3856 769 3800 728 
Q 3744 688 3672 625 
Q 3600 563 3525 488 
Q 3450 413 3394 356 
Q 3319 306 3228 284 
Q 3138 263 3044 238 
Q 2969 188 2866 134 
Q 2763 81 2653 43 
Q 2544 6 2437 -16 
Q 2331 -38 2250 -25 
Q 2044 -113 1853 -141 
Q 1663 -169 1400 -106 
z
M 1538 2256 
Q 1488 2106 1419 1987 
Q 1350 1869 1284 1744 
Q 1219 1619 1172 1478 
Q 1125 1338 1119 1150 
Q 1219 1044 1359 1019 
Q 1500 994 1647 1012 
Q 1794 1031 1937 1062 
Q 2081 1094 2200 1100 
Q 2200 1156 2244 1150 
Q 2450 1175 2634 1303 
Q 2819 1431 3019 1563 
Q 3044 1644 3084 1700 
Q 3125 1756 3125 1863 
Q 3100 1931 3094 1965 
Q 3088 2000 3088 2081 
Q 2956 2319 2859 2597 
Q 2763 2875 2638 3113 
Q 2625 3081 2594 3050 
Q 2563 3019 2525 3063 
Q 2494 2938 2416 2950 
Q 2338 2963 2269 3025 
Q 2094 2844 1919 2672 
Q 1744 2500 1606 2275 
Q 1581 2256 1575 2265 
Q 1569 2275 1538 2256 
z
" transform="scale(0.015625)"/>
      <path id="PermanentMarker-Regular-34" d="M 3444 3119 
Q 3481 3013 3518 2931 
Q 3556 2850 3663 2788 
Q 3638 2644 3650 2550 
Q 3663 2456 3619 2319 
Q 3531 2225 3409 2169 
Q 3288 2113 3159 2072 
Q 3031 2031 2903 1987 
Q 2775 1944 2669 1869 
Q 2588 1619 2497 1375 
Q 2406 1131 2338 838 
Q 2350 806 2381 793 
Q 2413 781 2431 756 
Q 2400 669 2425 616 
Q 2450 563 2494 519 
Q 2538 475 2584 431 
Q 2631 388 2650 331 
Q 2625 275 2619 219 
Q 2613 163 2609 106 
Q 2606 50 2590 -6 
Q 2575 -63 2531 -119 
Q 2406 -169 2278 -169 
Q 2150 -169 2044 -200 
Q 1913 -169 1822 -72 
Q 1731 25 1675 150 
Q 1619 275 1587 406 
Q 1556 538 1538 638 
Q 1575 706 1519 700 
Q 1494 788 1525 869 
Q 1556 950 1538 994 
Q 1550 1150 1587 1322 
Q 1625 1494 1675 1713 
Q 1594 1731 1497 1747 
Q 1400 1763 1309 1772 
Q 1219 1781 1144 1787 
Q 1069 1794 1031 1794 
Q 938 1819 869 1872 
Q 800 1925 744 1990 
Q 688 2056 634 2125 
Q 581 2194 525 2256 
Q 506 2475 462 2700 
Q 419 2925 381 3137 
Q 344 3350 325 3537 
Q 306 3725 344 3875 
Q 406 3969 468 4056 
Q 531 4144 619 4206 
Q 688 4188 728 4141 
Q 769 4094 803 4041 
Q 838 3988 878 3941 
Q 919 3894 988 3875 
Q 1013 3756 1066 3653 
Q 1119 3550 1166 3444 
Q 1213 3338 1247 3222 
Q 1281 3106 1281 2963 
Q 1344 2869 1416 2847 
Q 1488 2825 1569 2831 
Q 1650 2838 1734 2844 
Q 1819 2850 1906 2825 
Q 1925 2856 1969 2859 
Q 2013 2863 2044 2881 
Q 2081 2894 2084 2944 
Q 2088 2994 2138 3000 
Q 2125 3106 2140 3209 
Q 2156 3313 2172 3406 
Q 2188 3500 2191 3587 
Q 2194 3675 2163 3763 
Q 2225 3881 2240 4047 
Q 2256 4213 2278 4369 
Q 2300 4525 2359 4653 
Q 2419 4781 2569 4831 
Q 2944 4513 3094 3975 
Q 3031 3713 3022 3488 
Q 3013 3263 3019 3038 
Q 3125 3069 3240 3087 
Q 3356 3106 3444 3119 
z
" transform="scale(0.015625)"/>
      <path id="PermanentMarker-Regular-53" d="M 81 2819 
Q 100 2913 106 2972 
Q 113 3031 63 3100 
Q 88 3200 103 3256 
Q 119 3313 106 3413 
Q 163 3575 278 3687 
Q 394 3800 531 3878 
Q 669 3956 819 4009 
Q 969 4063 1100 4100 
Q 1100 4125 1075 4125 
Q 1050 4125 1063 4156 
Q 1400 4219 1740 4337 
Q 2081 4456 2437 4550 
Q 2794 4644 3169 4666 
Q 3544 4688 3956 4569 
Q 3981 4494 4025 4425 
Q 4069 4356 4116 4290 
Q 4163 4225 4200 4162 
Q 4238 4100 4244 4031 
Q 4319 3963 4366 3884 
Q 4413 3806 4381 3675 
Q 4313 3625 4238 3575 
Q 4163 3525 4081 3481 
Q 3800 3550 3519 3531 
Q 3238 3513 3013 3488 
Q 2944 3563 2850 3559 
Q 2756 3556 2653 3528 
Q 2550 3500 2450 3472 
Q 2350 3444 2263 3456 
Q 2194 3394 2081 3372 
Q 1969 3350 1844 3338 
Q 1838 3306 1856 3293 
Q 1875 3281 1863 3244 
Q 1906 3188 1981 3166 
Q 2056 3144 2134 3125 
Q 2213 3106 2275 3072 
Q 2338 3038 2356 2963 
Q 2469 2956 2550 2903 
Q 2631 2850 2687 2775 
Q 2744 2700 2769 2615 
Q 2794 2531 2788 2463 
Q 2813 2400 2841 2412 
Q 2869 2425 2906 2381 
Q 2931 2288 3022 2184 
Q 3113 2081 3163 1963 
Q 3175 1775 3184 1625 
Q 3194 1475 3131 1331 
Q 3025 1056 2825 837 
Q 2625 619 2372 453 
Q 2119 288 1837 166 
Q 1556 44 1281 -38 
Q 1256 -31 1222 -37 
Q 1188 -44 1206 0 
Q 1150 -50 1078 -62 
Q 1006 -75 922 -72 
Q 838 -69 753 -62 
Q 669 -56 588 -69 
Q 538 -19 497 31 
Q 456 81 431 150 
Q 400 156 403 190 
Q 406 225 375 225 
Q 375 250 381 262 
Q 388 275 394 288 
Q 419 306 416 315 
Q 413 325 397 334 
Q 381 344 365 356 
Q 350 369 356 388 
Q 388 444 378 522 
Q 369 600 362 681 
Q 356 763 375 834 
Q 394 906 481 956 
Q 738 931 966 981 
Q 1194 1031 1397 1118 
Q 1600 1206 1784 1309 
Q 1969 1413 2144 1500 
Q 2163 1563 2203 1606 
Q 2244 1650 2287 1690 
Q 2331 1731 2368 1778 
Q 2406 1825 2425 1894 
Q 2431 1919 2425 1931 
Q 2419 1944 2406 1953 
Q 2394 1963 2381 1975 
Q 2369 1988 2369 2013 
Q 2350 2019 2334 2025 
Q 2319 2031 2306 2031 
Q 2144 2113 1962 2169 
Q 1781 2225 1656 2294 
Q 1581 2244 1506 2269 
Q 1431 2294 1325 2319 
Q 1063 2331 828 2368 
Q 594 2406 375 2500 
Q 363 2538 344 2566 
Q 325 2594 256 2581 
Q 213 2644 166 2697 
Q 119 2750 81 2819 
z
" transform="scale(0.015625)"/>
      <path id="PermanentMarker-Regular-4f" d="M 1506 -25 
Q 1231 -63 1006 0 
Q 781 63 603 194 
Q 425 325 297 506 
Q 169 688 88 894 
Q 31 1319 118 1666 
Q 206 2013 375 2306 
Q 544 2600 759 2856 
Q 975 3113 1175 3350 
Q 1219 3331 1247 3350 
Q 1275 3369 1297 3400 
Q 1319 3431 1347 3462 
Q 1375 3494 1413 3506 
Q 1438 3563 1478 3600 
Q 1519 3638 1566 3672 
Q 1613 3706 1653 3743 
Q 1694 3781 1725 3838 
Q 1788 3850 1834 3881 
Q 1881 3913 1922 3950 
Q 1963 3988 2006 4019 
Q 2050 4050 2113 4069 
L 2113 4150 
Q 2250 4213 2312 4288 
Q 2375 4363 2463 4481 
Q 2531 4488 2572 4488 
Q 2613 4488 2700 4500 
Q 2756 4606 2806 4656 
Q 2856 4706 2950 4769 
Q 3044 4719 3150 4709 
Q 3256 4700 3344 4613 
Q 3350 4538 3387 4497 
Q 3425 4456 3469 4422 
Q 3513 4388 3556 4350 
Q 3600 4313 3613 4244 
Q 3644 4244 3653 4256 
Q 3663 4269 3694 4263 
Q 3706 4213 3718 4181 
Q 3731 4150 3747 4125 
Q 3763 4100 3778 4069 
Q 3794 4038 3806 3994 
Q 3775 3919 3750 3834 
Q 3725 3750 3650 3719 
Q 3650 3669 3687 3666 
Q 3725 3663 3731 3619 
Q 3738 3563 3713 3525 
Q 3888 3231 4031 2909 
Q 4175 2588 4356 2294 
Q 4344 2206 4366 2122 
Q 4388 2038 4422 1956 
Q 4456 1875 4487 1794 
Q 4519 1713 4531 1631 
Q 4544 1525 4531 1403 
Q 4519 1281 4481 1168 
Q 4444 1056 4381 959 
Q 4319 863 4238 813 
Q 4138 688 3988 609 
Q 3838 531 3713 425 
Q 3625 375 3525 353 
Q 3425 331 3319 306 
Q 3238 256 3125 209 
Q 3013 163 2894 125 
Q 2775 88 2656 66 
Q 2538 44 2444 56 
Q 2219 -25 2006 -56 
Q 1794 -88 1506 -25 
z
M 1588 2250 
Q 1525 2106 1440 1990 
Q 1356 1875 1275 1756 
Q 1194 1638 1134 1503 
Q 1075 1369 1069 1188 
Q 1194 1081 1366 1059 
Q 1538 1038 1719 1053 
Q 1900 1069 2081 1100 
Q 2263 1131 2406 1131 
Q 2406 1188 2456 1188 
Q 2719 1213 2944 1334 
Q 3169 1456 3413 1581 
Q 3444 1656 3494 1712 
Q 3544 1769 3550 1875 
Q 3519 1931 3509 1968 
Q 3500 2006 3500 2081 
Q 3338 2306 3219 2572 
Q 3100 2838 2944 3075 
Q 2931 3044 2893 3012 
Q 2856 2981 2813 3025 
Q 2794 2963 2756 2941 
Q 2719 2919 2672 2919 
Q 2625 2919 2578 2937 
Q 2531 2956 2494 2988 
Q 2275 2813 2059 2650 
Q 1844 2488 1669 2269 
Q 1638 2250 1631 2256 
Q 1625 2263 1588 2250 
z
" transform="scale(0.015625)"/>
      <path id="PermanentMarker-Regular-57" d="M 488 444 
Q 456 513 425 575 
Q 394 638 363 688 
Q 288 838 231 956 
Q 175 1075 125 1231 
Q 144 1338 191 1588 
Q 238 1838 300 2134 
Q 363 2431 434 2737 
Q 506 3044 581 3263 
Q 650 3456 734 3675 
Q 819 3894 922 4078 
Q 1025 4263 1144 4394 
Q 1263 4525 1400 4550 
Q 1438 4500 1481 4472 
Q 1525 4444 1563 4431 
Q 1669 4281 1769 4178 
Q 1869 4075 2006 3975 
Q 1969 3788 1897 3559 
Q 1825 3331 1747 3100 
Q 1669 2869 1594 2653 
Q 1519 2438 1475 2281 
Q 1438 2156 1400 1994 
Q 1369 1856 1334 1662 
Q 1300 1469 1269 1238 
Q 1356 1263 1465 1338 
Q 1575 1413 1669 1494 
Q 1781 1588 1888 1694 
Q 2031 1838 2131 1956 
Q 2231 2075 2315 2203 
Q 2400 2331 2490 2484 
Q 2581 2638 2706 2850 
Q 2819 3031 2941 3237 
Q 3063 3444 3188 3631 
Q 3313 3819 3431 3978 
Q 3550 4138 3650 4225 
Q 3719 4156 3809 4081 
Q 3900 4006 4006 3975 
Q 4050 3906 4090 3853 
Q 4131 3800 4169 3750 
Q 4219 3681 4259 3625 
Q 4300 3569 4331 3500 
Q 4325 3450 4309 3369 
Q 4294 3288 4275 3191 
Q 4256 3094 4234 2994 
Q 4213 2894 4194 2800 
Q 4131 2519 4100 2375 
Q 4069 2231 4056 2150 
Q 4044 2069 4041 2012 
Q 4038 1956 4038 1856 
Q 4038 1781 4050 1706 
Q 4063 1638 4078 1566 
Q 4094 1494 4138 1431 
L 4438 1663 
Q 4563 1756 4678 1928 
Q 4794 2100 4903 2322 
Q 5013 2544 5119 2803 
Q 5225 3063 5331 3338 
Q 5406 3538 5484 3734 
Q 5563 3931 5644 4109 
Q 5725 4288 5803 4434 
Q 5881 4581 5956 4681 
Q 6125 4575 6247 4469 
Q 6369 4363 6459 4234 
Q 6550 4106 6603 3940 
Q 6656 3775 6681 3550 
Q 6544 3288 6425 3013 
Q 6306 2738 6188 2456 
Q 6038 2094 5878 1734 
Q 5719 1375 5525 1050 
Q 5331 725 5090 453 
Q 4850 181 4538 -6 
Q 4450 13 4388 13 
Q 4319 13 4272 -6 
Q 4225 -25 4188 -56 
Q 3931 63 3775 297 
Q 3619 531 3469 819 
Q 3450 863 3428 903 
Q 3406 944 3381 988 
L 3275 1181 
L 3213 1300 
L 3125 1219 
L 2994 1100 
L 2919 1025 
Q 2725 844 2525 672 
Q 2325 500 2106 359 
Q 1888 219 1641 131 
Q 1394 44 1113 38 
Q 1063 63 1022 81 
Q 981 100 944 119 
Q 800 188 706 250 
Q 613 313 488 444 
z
" transform="scale(0.015625)"/>
      <path id="PermanentMarker-Regular-41" d="M -163 594 
L -81 656 
L -75 788 
Q 81 1169 247 1519 
Q 413 1869 594 2238 
Q 650 2356 709 2475 
Q 769 2594 825 2719 
Q 819 2744 819 2772 
Q 819 2800 831 2838 
Q 919 2963 972 3063 
Q 1025 3163 1075 3269 
Q 1131 3394 1197 3519 
Q 1263 3644 1363 3763 
L 1406 3825 
L 1475 3819 
Q 1500 3831 1528 3840 
Q 1556 3850 1600 3850 
L 1713 3831 
Q 1919 3925 2078 4103 
Q 2238 4281 2400 4531 
L 2475 4638 
L 2575 4575 
Q 2606 4556 2675 4537 
Q 2744 4519 2819 4494 
Q 2950 4463 3075 4422 
Q 3200 4381 3269 4313 
L 3300 4256 
Q 3313 4188 3322 4131 
Q 3331 4075 3344 4019 
Q 3369 3888 3387 3759 
Q 3406 3631 3413 3475 
Q 3444 3350 3472 3222 
Q 3500 3094 3525 2969 
Q 3556 2788 3593 2622 
Q 3631 2456 3694 2306 
Q 3756 2306 3769 2300 
Q 3844 2331 3944 2338 
L 4025 2344 
L 4050 2269 
Q 4063 2250 4081 2231 
Q 4100 2213 4125 2194 
Q 4225 2188 4272 2153 
Q 4319 2119 4350 2088 
Q 4363 2075 4381 2059 
Q 4400 2044 4413 2038 
L 4525 1994 
L 4463 1875 
Q 4394 1744 4253 1619 
Q 4113 1494 3938 1413 
Q 3950 1369 3953 1331 
Q 3956 1294 3969 1244 
Q 3994 1119 4009 984 
Q 4025 850 4006 706 
Q 3944 544 3859 416 
Q 3775 288 3659 184 
Q 3544 81 3400 15 
Q 3256 -50 3100 -56 
Q 3013 -38 2972 -12 
Q 2931 13 2900 38 
Q 2850 75 2819 88 
L 2738 125 
L 2763 219 
Q 2781 269 2759 306 
Q 2738 344 2669 406 
Q 2644 425 2625 447 
Q 2606 469 2581 494 
L 2456 638 
L 2663 694 
Q 2850 744 2912 822 
Q 2975 900 2963 1100 
Q 2806 1131 2706 1109 
Q 2606 1088 2506 1063 
Q 2363 1025 2225 997 
Q 2088 969 1925 969 
Q 1819 969 1700 988 
L 1631 994 
L 1613 1063 
Q 1613 1075 1597 1090 
Q 1581 1106 1569 1119 
Q 1538 1156 1494 1218 
Q 1450 1281 1475 1375 
Q 1431 1444 1425 1519 
Q 1400 1469 1384 1422 
Q 1369 1375 1356 1331 
L 1331 1250 
L 1250 1238 
Q 1238 1225 1228 1200 
Q 1219 1175 1225 1163 
L 1250 1094 
L 1188 1038 
Q 1175 1019 1156 1006 
Q 1138 994 1125 981 
Q 1113 913 1091 850 
Q 1069 788 1044 725 
Q 1013 625 984 531 
Q 956 438 956 344 
L 931 263 
Q 900 213 853 188 
Q 806 163 763 144 
Q 700 119 675 94 
L 656 13 
L 563 0 
Q 481 -19 447 -25 
Q 413 -31 369 -31 
L 288 -25 
Q 213 50 166 90 
Q 119 131 56 163 
L 19 213 
Q -6 263 -12 303 
Q -19 344 -31 388 
Q -44 469 -69 500 
L -163 594 
z
M 1831 2219 
Q 1744 2094 1663 1956 
Q 1706 1963 1747 1963 
Q 1788 1963 1831 1969 
Q 2050 1981 2237 2000 
Q 2425 2019 2644 2063 
Q 2594 2294 2534 2534 
Q 2475 2775 2406 3019 
L 2375 2956 
Q 2219 2788 2075 2594 
Q 1931 2400 1838 2225 
L 1831 2219 
z
" transform="scale(0.015625)"/>
      <path id="PermanentMarker-Regular-70" d="M 2356 3875 
Q 2619 3844 2825 3769 
Q 3031 3694 3175 3569 
Q 3275 3413 3365 3231 
Q 3456 3050 3503 2853 
Q 3550 2656 3547 2450 
Q 3544 2244 3456 2031 
Q 3275 1806 3015 1665 
Q 2756 1525 2456 1437 
Q 2156 1350 1834 1287 
Q 1513 1225 1206 1163 
Q 1213 1019 1209 859 
Q 1206 700 1178 540 
Q 1150 381 1094 231 
Q 1038 81 944 -44 
Q 838 -44 725 -72 
Q 613 -100 525 -119 
Q 481 -94 447 -72 
Q 413 -50 350 -44 
Q 363 19 319 84 
Q 275 150 231 219 
Q 188 288 172 350 
Q 156 413 231 469 
Q 188 513 188 581 
Q 231 656 265 787 
Q 300 919 322 1047 
Q 344 1175 331 1281 
Q 319 1388 206 1438 
Q 213 1450 231 1450 
Q 250 1450 269 1456 
Q 219 1494 209 1562 
Q 200 1631 163 1681 
Q 175 1713 181 1738 
Q 188 1763 225 1756 
Q 206 1869 228 1969 
Q 250 2069 294 2159 
Q 338 2250 400 2337 
Q 463 2425 519 2513 
Q 563 2519 572 2500 
Q 581 2481 613 2506 
Q 694 2569 725 2637 
Q 756 2706 756 2794 
Q 800 2925 862 3059 
Q 925 3194 1000 3306 
Q 1075 3419 1165 3506 
Q 1256 3594 1356 3638 
Q 1431 3700 1543 3753 
Q 1656 3806 1787 3834 
Q 1919 3863 2053 3866 
Q 2188 3869 2300 3838 
Q 2331 3825 2334 3850 
Q 2338 3875 2356 3875 
z
M 2100 2381 
Q 2256 2450 2434 2490 
Q 2613 2531 2731 2644 
Q 2656 2713 2512 2766 
Q 2369 2819 2200 2831 
Q 2031 2844 1859 2803 
Q 1688 2763 1563 2650 
Q 1525 2538 1500 2472 
Q 1475 2406 1431 2313 
Q 1444 2281 1472 2265 
Q 1500 2250 1513 2219 
Q 1656 2294 1803 2303 
Q 1950 2313 2100 2381 
z
" transform="scale(0.015625)"/>
      <path id="PermanentMarker-Regular-2d" d="M 3250 1863 
Q 3344 1850 3384 1819 
Q 3425 1788 3440 1741 
Q 3456 1694 3450 1637 
Q 3444 1581 3444 1525 
Q 3288 1419 3013 1378 
Q 2738 1338 2438 1322 
Q 2138 1306 1856 1306 
Q 1575 1306 1413 1288 
Q 1075 1250 890 1215 
Q 706 1181 638 1150 
Q 519 1156 450 1193 
Q 381 1231 337 1284 
Q 294 1338 262 1406 
Q 231 1475 188 1550 
Q 213 1600 200 1694 
Q 188 1788 125 1838 
Q 175 1844 200 1909 
Q 225 1975 200 2006 
Q 300 2031 415 2040 
Q 531 2050 643 2056 
Q 756 2063 859 2078 
Q 963 2094 1038 2131 
Q 1350 2138 1684 2150 
Q 2019 2163 2313 2175 
Q 2419 2144 2562 2141 
Q 2706 2138 2843 2122 
Q 2981 2106 3093 2050 
Q 3206 1994 3250 1863 
z
" transform="scale(0.015625)"/>
      <path id="PermanentMarker-Regular-49" d="M 106 -75 
Q 19 -19 -34 68 
Q -88 156 -122 256 
Q -156 356 -178 465 
Q -200 575 -225 675 
Q -225 763 -187 803 
Q -150 844 -106 881 
Q 44 888 162 906 
Q 281 925 393 944 
Q 506 963 618 978 
Q 731 994 863 994 
Q 956 1188 1037 1366 
Q 1119 1544 1194 1706 
Q 1231 1863 1290 1997 
Q 1350 2131 1406 2253 
Q 1463 2375 1506 2497 
Q 1550 2619 1563 2756 
Q 1638 2975 1697 3159 
Q 1756 3344 1788 3600 
Q 1550 3563 1406 3528 
Q 1263 3494 1200 3463 
Q 1075 3469 1003 3512 
Q 931 3556 887 3618 
Q 844 3681 812 3762 
Q 781 3844 738 3931 
Q 763 3988 750 4097 
Q 738 4206 675 4256 
Q 725 4269 750 4341 
Q 775 4413 756 4450 
Q 863 4481 981 4490 
Q 1100 4500 1215 4509 
Q 1331 4519 1437 4534 
Q 1544 4550 1619 4600 
Q 1944 4613 2297 4625 
Q 2650 4638 2950 4656 
Q 3063 4619 3209 4619 
Q 3356 4619 3503 4600 
Q 3650 4581 3765 4518 
Q 3881 4456 3925 4300 
Q 4019 4288 4066 4250 
Q 4113 4213 4125 4159 
Q 4138 4106 4134 4040 
Q 4131 3975 4131 3913 
Q 4031 3838 3878 3791 
Q 3725 3744 3544 3716 
Q 3363 3688 3166 3678 
Q 2969 3669 2781 3663 
Q 2750 3456 2672 3178 
Q 2594 2900 2512 2634 
Q 2431 2369 2372 2159 
Q 2313 1950 2319 1888 
Q 2256 1744 2215 1644 
Q 2175 1544 2140 1456 
Q 2106 1369 2072 1284 
Q 2038 1200 1988 1094 
L 2413 1094 
Q 2425 1025 2469 1000 
Q 2513 975 2563 956 
Q 2613 938 2653 909 
Q 2694 881 2694 819 
Q 2813 788 2844 725 
Q 2875 663 2859 591 
Q 2844 519 2797 444 
Q 2750 369 2706 313 
Q 2650 325 2600 284 
Q 2550 244 2506 194 
Q 2325 219 2150 200 
Q 1975 181 1825 169 
Q 1794 163 1800 134 
Q 1806 106 1788 94 
Q 1594 156 1391 143 
Q 1188 131 978 84 
Q 769 38 550 -15 
Q 331 -69 106 -75 
z
" transform="scale(0.015625)"/>
      <path id="PermanentMarker-Regular-52" d="M 175 538 
Q 144 531 119 584 
Q 94 638 63 688 
L 131 688 
Q 88 825 109 940 
Q 131 1056 162 1165 
Q 194 1275 216 1378 
Q 238 1481 194 1594 
Q 225 1575 240 1609 
Q 256 1644 265 1697 
Q 275 1750 272 1809 
Q 269 1869 263 1906 
Q 344 2100 391 2306 
Q 438 2513 475 2716 
Q 513 2919 559 3109 
Q 606 3300 681 3469 
Q 769 3481 866 3447 
Q 963 3413 994 3363 
Q 1188 3513 1338 3725 
Q 1488 3938 1641 4141 
Q 1794 4344 1987 4500 
Q 2181 4656 2469 4688 
Q 2619 4581 2806 4459 
Q 2994 4338 3113 4156 
Q 3163 4125 3209 4090 
Q 3256 4056 3306 4025 
L 3306 3931 
Q 3394 3850 3453 3740 
Q 3513 3631 3559 3509 
Q 3606 3388 3650 3263 
Q 3694 3138 3750 3031 
Q 3738 2994 3741 2966 
Q 3744 2938 3753 2909 
Q 3763 2881 3769 2847 
Q 3775 2813 3775 2763 
Q 3750 2431 3559 2228 
Q 3369 2025 3097 1897 
Q 2825 1769 2519 1678 
Q 2213 1588 1963 1481 
Q 1963 1456 1991 1456 
Q 2019 1456 2006 1419 
Q 2194 1306 2297 1237 
Q 2400 1169 2490 1122 
Q 2581 1075 2690 1044 
Q 2800 1013 2994 969 
Q 3188 925 3297 897 
Q 3406 869 3493 853 
Q 3581 838 3681 825 
Q 3781 813 3950 794 
Q 4019 725 4062 631 
Q 4106 538 4125 444 
Q 4144 350 4134 265 
Q 4125 181 4081 131 
Q 4088 106 4116 109 
Q 4144 113 4175 106 
Q 4131 75 4100 31 
Q 4069 -13 4037 -56 
Q 4006 -100 3965 -137 
Q 3925 -175 3863 -181 
Q 3638 -269 3288 -187 
Q 2938 -106 2394 100 
Q 2125 200 1956 281 
Q 1788 363 1663 441 
Q 1538 519 1431 609 
Q 1325 700 1188 825 
Q 1169 819 1166 800 
Q 1163 781 1144 775 
Q 1113 525 1047 369 
Q 981 213 856 50 
Q 756 69 722 31 
Q 688 -6 638 -38 
Q 575 -50 544 -34 
Q 513 -19 488 0 
Q 463 19 431 37 
Q 400 56 331 50 
Q 313 106 294 159 
Q 275 213 194 206 
Q 213 263 206 303 
Q 200 344 187 378 
Q 175 413 165 450 
Q 156 488 175 538 
z
M 2263 3394 
Q 2181 3275 2081 3178 
Q 1981 3081 1884 2978 
Q 1788 2875 1713 2753 
Q 1638 2631 1606 2463 
Q 1869 2494 2156 2609 
Q 2444 2725 2700 2831 
Q 2669 3063 2537 3203 
Q 2406 3344 2263 3394 
z
" transform="scale(0.015625)"/>
      <path id="PermanentMarker-Regular-45" d="M 350 213 
Q 300 263 278 331 
Q 256 400 175 444 
Q 163 538 141 659 
Q 119 781 97 909 
Q 75 1038 65 1166 
Q 56 1294 75 1400 
Q 88 1456 116 1506 
Q 144 1556 172 1603 
Q 200 1650 215 1700 
Q 231 1750 219 1800 
Q 256 1806 265 1840 
Q 275 1875 325 1863 
Q 369 2000 419 2119 
Q 469 2238 525 2350 
Q 581 2463 640 2578 
Q 700 2694 750 2838 
Q 644 2938 597 3053 
Q 550 3169 525 3287 
Q 500 3406 487 3528 
Q 475 3650 438 3775 
Q 513 3888 619 3959 
Q 725 4031 853 4078 
Q 981 4125 1131 4153 
Q 1281 4181 1450 4219 
Q 1750 4313 1987 4366 
Q 2225 4419 2450 4453 
Q 2675 4488 2919 4516 
Q 3163 4544 3481 4600 
Q 3488 4581 3503 4581 
Q 3519 4581 3544 4581 
Q 3563 4538 3613 4538 
Q 3613 4556 3609 4572 
Q 3606 4588 3606 4600 
Q 3619 4600 3641 4594 
Q 3663 4588 3678 4581 
Q 3694 4575 3706 4584 
Q 3719 4594 3713 4625 
Q 3788 4494 3906 4409 
Q 4025 4325 4169 4263 
Q 4175 4206 4172 4181 
Q 4169 4156 4162 4134 
Q 4156 4113 4156 4084 
Q 4156 4056 4169 4006 
Q 4069 3838 3941 3744 
Q 3813 3650 3669 3600 
Q 3525 3550 3365 3525 
Q 3206 3500 3040 3472 
Q 2875 3444 2706 3394 
Q 2538 3344 2375 3244 
Q 2325 3263 2284 3259 
Q 2244 3256 2200 3243 
Q 2156 3231 2103 3218 
Q 2050 3206 1975 3219 
Q 1925 3175 1859 3156 
Q 1794 3138 1725 3119 
Q 1756 3050 1753 2981 
Q 1750 2913 1769 2863 
Q 2031 2838 2350 2866 
Q 2669 2894 2975 2906 
Q 2981 2875 2968 2862 
Q 2956 2850 2956 2819 
Q 3013 2781 3063 2725 
Q 3113 2669 3166 2616 
Q 3219 2563 3275 2528 
Q 3331 2494 3406 2500 
Q 3438 2438 3450 2369 
Q 3463 2300 3431 2225 
Q 3306 2144 3187 2059 
Q 3069 1975 2941 1906 
Q 2813 1838 2663 1794 
Q 2513 1750 2338 1756 
Q 2306 1756 2284 1756 
Q 2263 1756 2231 1781 
Q 2169 1750 2066 1759 
Q 1963 1769 1894 1738 
Q 1806 1769 1690 1769 
Q 1575 1769 1488 1800 
Q 1375 1638 1275 1459 
Q 1175 1281 1100 1081 
Q 1356 1044 1525 1050 
Q 1694 1056 1844 1075 
Q 1994 1094 2153 1112 
Q 2313 1131 2544 1125 
Q 2700 1200 2903 1228 
Q 3106 1256 3281 1313 
Q 3344 1294 3387 1241 
Q 3431 1188 3472 1134 
Q 3513 1081 3556 1043 
Q 3600 1006 3669 1019 
Q 3700 988 3709 944 
Q 3719 900 3728 862 
Q 3738 825 3756 803 
Q 3775 781 3825 788 
Q 3706 544 3559 412 
Q 3413 281 3228 209 
Q 3044 138 2816 103 
Q 2588 69 2306 19 
Q 2238 6 2191 22 
Q 2144 38 2094 38 
Q 1919 6 1678 -25 
Q 1438 -56 1194 -50 
Q 950 -44 725 12 
Q 500 69 350 213 
z
" transform="scale(0.015625)"/>
      <path id="PermanentMarker-Regular-46" d="M 275 1269 
Q 88 1375 -12 1569 
Q -113 1763 -125 1938 
Q -106 2088 -46 2172 
Q 13 2256 94 2309 
Q 175 2363 262 2391 
Q 350 2419 431 2438 
L 525 2406 
Q 556 2375 590 2350 
Q 625 2325 656 2300 
Q 719 2325 734 2375 
Q 750 2425 769 2475 
Q 788 2544 813 2612 
Q 838 2681 875 2750 
Q 869 2806 881 2850 
Q 894 2894 906 2925 
Q 869 2956 853 2959 
Q 838 2963 800 2975 
Q 781 2975 762 2978 
Q 744 2981 719 2988 
Q 625 3056 597 3103 
Q 569 3150 538 3200 
Q 506 3250 481 3287 
Q 456 3325 425 3356 
L 350 3406 
L 388 3481 
Q 400 3494 400 3516 
Q 400 3538 375 3581 
Q 356 3663 369 3700 
L 381 3775 
Q 444 3856 450 3869 
L 513 3931 
Q 656 3969 806 4016 
Q 956 4063 1100 4113 
Q 1244 4163 1394 4213 
Q 1544 4263 1694 4300 
Q 1744 4344 1803 4353 
Q 1863 4363 1913 4369 
Q 1956 4369 1993 4375 
Q 2031 4381 2050 4406 
Q 2156 4444 2256 4469 
Q 2444 4519 2750 4587 
Q 3056 4656 3438 4688 
L 3569 4694 
Q 3606 4688 3643 4691 
Q 3681 4694 3719 4694 
Q 4044 4694 4150 4494 
Q 4213 4463 4263 4416 
Q 4313 4369 4356 4325 
Q 4388 4294 4413 4272 
Q 4438 4250 4456 4238 
L 4506 4188 
Q 4575 4038 4531 3894 
Q 4494 3819 4450 3806 
Q 4406 3794 4363 3781 
L 4281 3738 
Q 4200 3744 4159 3744 
Q 4119 3744 4069 3744 
Q 3881 3744 3634 3722 
Q 3388 3700 3131 3659 
Q 2875 3619 2631 3559 
Q 2388 3500 2206 3431 
Q 2156 3394 2075 3363 
Q 2056 3356 2019 3331 
Q 2025 3281 2019 3234 
Q 2013 3188 2000 3144 
Q 1994 3113 1991 3078 
Q 1988 3044 1981 3006 
Q 1850 2850 1856 2638 
L 1825 2575 
Q 1800 2550 1784 2503 
Q 1769 2456 1781 2406 
L 1806 2331 
Q 1931 2344 2053 2359 
Q 2175 2375 2313 2394 
Q 2488 2425 2666 2447 
Q 2844 2469 3038 2469 
L 3281 2469 
L 3225 2413 
L 3294 2406 
L 3256 2306 
Q 3300 2288 3322 2278 
Q 3344 2269 3363 2256 
L 3406 2194 
Q 3438 2175 3463 2134 
Q 3488 2094 3494 2025 
L 3475 1963 
L 3181 1588 
L 3144 1538 
L 3081 1556 
Q 2963 1563 2856 1531 
Q 2806 1519 2750 1503 
Q 2694 1488 2638 1488 
Q 2488 1463 2388 1447 
Q 2288 1431 2188 1419 
Q 2050 1394 1922 1372 
Q 1794 1350 1681 1306 
Q 1613 1300 1600 1303 
Q 1588 1306 1575 1306 
Q 1513 1306 1450 1287 
Q 1388 1269 1331 1250 
Q 1294 1219 1281 1184 
Q 1269 1150 1256 1113 
Q 1244 1069 1222 1028 
Q 1200 988 1169 944 
L 1175 831 
Q 1119 819 1119 816 
Q 1119 813 1113 813 
Q 1113 763 1097 719 
Q 1081 675 1069 638 
Q 1056 613 1050 594 
Q 1044 575 1044 556 
Q 1106 444 1075 300 
Q 1050 181 981 90 
Q 913 0 819 -50 
Q 719 -63 672 -44 
Q 625 -25 575 -6 
Q 544 6 512 15 
Q 481 25 450 31 
L 375 94 
Q 356 131 331 165 
Q 306 200 281 238 
Q 250 281 219 325 
Q 188 369 163 425 
Q 119 644 147 791 
Q 175 938 225 1081 
Q 238 1131 250 1175 
Q 263 1219 275 1269 
z
" transform="scale(0.015625)"/>
      <path id="PermanentMarker-Regular-44" d="M 613 -69 
Q 431 -25 334 78 
Q 238 181 191 322 
Q 144 463 128 631 
Q 113 800 94 981 
Q 119 1063 159 1119 
Q 200 1175 194 1275 
Q 263 1475 319 1662 
Q 375 1850 394 2050 
Q 431 2106 469 2125 
Q 519 2481 481 2856 
Q 444 3231 356 3550 
Q 363 3619 375 3653 
Q 388 3688 375 3713 
Q 363 3769 413 3769 
Q 463 3769 513 3769 
Q 513 3881 472 3990 
Q 431 4100 394 4244 
Q 444 4356 462 4462 
Q 481 4569 531 4656 
Q 731 4594 925 4512 
Q 1119 4431 1306 4353 
Q 1494 4275 1675 4203 
Q 1856 4131 2031 4088 
Q 2300 3894 2584 3703 
Q 2869 3513 3103 3284 
Q 3338 3056 3494 2762 
Q 3650 2469 3675 2069 
Q 3663 2031 3656 2006 
Q 3650 1981 3644 1956 
Q 3638 1931 3638 1900 
Q 3638 1869 3638 1813 
Q 3413 1419 3069 1150 
Q 2725 881 2319 675 
Q 1913 469 1472 297 
Q 1031 125 613 -69 
z
M 1225 3475 
Q 1169 3475 1144 3450 
Q 1219 3169 1256 2919 
Q 1294 2669 1297 2419 
Q 1300 2169 1269 1906 
Q 1238 1644 1181 1338 
Q 1263 1344 1325 1369 
Q 1388 1394 1453 1425 
Q 1519 1456 1591 1481 
Q 1663 1506 1756 1513 
Q 1781 1563 1822 1591 
Q 1863 1619 1894 1650 
Q 2050 1713 2206 1781 
Q 2363 1850 2494 1937 
Q 2625 2025 2731 2137 
Q 2838 2250 2906 2406 
Q 2856 2500 2784 2565 
Q 2713 2631 2634 2697 
Q 2556 2763 2484 2834 
Q 2413 2906 2369 3000 
Q 2269 3013 2194 3053 
Q 2119 3094 2050 3134 
Q 1981 3175 1903 3212 
Q 1825 3250 1719 3256 
Q 1556 3344 1425 3378 
Q 1294 3413 1225 3475 
z
" transform="scale(0.015625)"/>
     </defs>
     <use xlink:href="#PermanentMarker-Regular-4d"/>
     <use xlink:href="#PermanentMarker-Regular-61" x="97.363281"/>
     <use xlink:href="#PermanentMarker-Regular-74" x="150.46875"/>
     <use xlink:href="#PermanentMarker-Regular-74" x="198.417969"/>
     <use xlink:href="#PermanentMarker-Regular-27" x="246.367188"/>
     <use xlink:href="#PermanentMarker-Regular-73" x="272.929688"/>
     <use xlink:href="#PermanentMarker-Regular-20" x="319.316406"/>
     <use xlink:href="#PermanentMarker-Regular-32" x="356.328125"/>
     <use xlink:href="#PermanentMarker-Regular-30" x="421.367188"/>
     <use xlink:href="#PermanentMarker-Regular-32" x="490.019531"/>
     <use xlink:href="#PermanentMarker-Regular-34" x="555.058594"/>
     <use xlink:href="#PermanentMarker-Regular-20" x="613.261719"/>
     <use xlink:href="#PermanentMarker-Regular-53" x="650.273438"/>
     <use xlink:href="#PermanentMarker-Regular-4f" x="705.890625"/>
     <use xlink:href="#PermanentMarker-Regular-57" x="780.304688"/>
     <use xlink:href="#PermanentMarker-Regular-20" x="879.71875"/>
     <use xlink:href="#PermanentMarker-Regular-41" x="916.730469"/>
     <use xlink:href="#PermanentMarker-Regular-70" x="986.945312"/>
     <use xlink:href="#PermanentMarker-Regular-70" x="1039.386719"/>
     <use xlink:href="#PermanentMarker-Regular-20" x="1091.828125"/>
     <use xlink:href="#PermanentMarker-Regular-2d" x="1128.839844"/>
     <use xlink:href="#PermanentMarker-Regular-20" x="1189.777344"/>
     <use xlink:href="#PermanentMarker-Regular-57" x="1226.789062"/>
     <use xlink:href="#PermanentMarker-Regular-49" x="1324.203125"/>
     <use xlink:href="#PermanentMarker-Regular-52" x="1375.765625"/>
     <use xlink:href="#PermanentMarker-Regular-45" x="1440.414062"/>
     <use xlink:href="#PermanentMarker-Regular-46" x="1503.109375"/>
     <use xlink:href="#PermanentMarker-Regular-52" x="1560.628906"/>
     <use xlink:href="#PermanentMarker-Regular-41" x="1625.277344"/>
     <use xlink:href="#PermanentMarker-Regular-4d" x="1695.492188"/>
     <use xlink:href="#PermanentMarker-Regular-45" x="1792.855469"/>
     <use xlink:href="#PermanentMarker-Regular-20" x="1855.550781"/>
     <use xlink:href="#PermanentMarker-Regular-2d" x="1892.5625"/>
     <use xlink:href="#PermanentMarker-Regular-20" x="1953.5"/>
     <use xlink:href="#PermanentMarker-Regular-44" x="1990.511719"/>
     <use xlink:href="#PermanentMarker-Regular-45" x="2048.398438"/>
     <use xlink:href="#PermanentMarker-Regular-4d" x="2111.09375"/>
     <use xlink:href="#PermanentMarker-Regular-4f" x="2208.457031"/>
    </g>
   </g>
  </g>
 </g>
</svg>
