<?xml version="1.0" encoding="utf-8" standalone="no"?>
<!DOCTYPE svg PUBLIC "-//W3C//DTD SVG 1.1//EN"
  "http://www.w3.org/Graphics/SVG/1.1/DTD/svg11.dtd">
<svg xmlns:xlink="http://www.w3.org/1999/xlink" width="212.37pt" height="21.635122pt" viewBox="0 0 212.37 21.635122" xmlns="http://www.w3.org/2000/svg" version="1.1">
 <metadata>
  <rdf:RDF xmlns:dc="http://purl.org/dc/elements/1.1/" xmlns:cc="http://creativecommons.org/ns#" xmlns:rdf="http://www.w3.org/1999/02/22-rdf-syntax-ns#">
   <cc:Work>
    <dc:type rdf:resource="http://purl.org/dc/dcmitype/StillImage"/>
    <dc:date>2024-07-19T16:21:11.462588</dc:date>
    <dc:format>image/svg+xml</dc:format>
    <dc:creator>
     <cc:Agent>
      <dc:title>Matplotlib v3.9.1, https://matplotlib.org/</dc:title>
     </cc:Agent>
    </dc:creator>
   </cc:Work>
  </rdf:RDF>
 </metadata>
 <defs>
  <style type="text/css">*{stroke-linejoin: round; stroke-linecap: butt}</style>
 </defs>
 <g id="figure_1">
  <g id="patch_1">
   <path d="M 0 21.635122 
L 212.37 21.635122 
L 212.37 0 
L 0 0 
L 0 21.635122 
z
" style="fill: none"/>
  </g>
  <g id="axes_1">
   <g id="text_1">
    <!-- Cameron Ambrose -->
    <g style="fill: #62d84e" transform="translate(0 19.020686) scale(0.24 -0.24)">
     <defs>
      <path id="PermanentMarker-Regular-43" d="M 581 544 
Q 400 681 284 887 
Q 169 1094 103 1325 
Q 38 1556 16 1803 
Q -6 2050 0 2275 
Q 56 2444 137 2584 
Q 219 2725 319 2853 
Q 419 2981 528 3097 
Q 638 3213 744 3331 
Q 781 3331 813 3313 
Q 838 3381 888 3431 
Q 938 3481 994 3522 
Q 1050 3563 1106 3603 
Q 1163 3644 1200 3700 
Q 1356 3738 1478 3806 
Q 1600 3875 1712 3956 
Q 1825 4038 1944 4106 
Q 2063 4175 2219 4213 
Q 2275 4275 2359 4319 
Q 2444 4363 2528 4400 
Q 2613 4438 2691 4481 
Q 2769 4525 2819 4600 
Q 2856 4550 2925 4565 
Q 2994 4581 3050 4600 
Q 3088 4606 3113 4587 
Q 3138 4569 3159 4547 
Q 3181 4525 3197 4519 
Q 3213 4513 3231 4556 
Q 3281 4550 3259 4512 
Q 3238 4475 3231 4463 
Q 3294 4475 3334 4440 
Q 3375 4406 3463 4394 
Q 3494 4363 3481 4344 
Q 3469 4325 3463 4281 
Q 3688 4213 3750 4066 
Q 3813 3919 3763 3759 
Q 3713 3600 3578 3465 
Q 3444 3331 3281 3288 
Q 3088 3238 2922 3188 
Q 2756 3138 2603 3075 
Q 2450 3013 2315 2928 
Q 2181 2844 2081 2731 
Q 1906 2681 1765 2593 
Q 1625 2506 1503 2400 
Q 1381 2294 1268 2178 
Q 1156 2063 1044 1950 
Q 1044 1844 1006 1787 
Q 969 1731 925 1675 
Q 938 1556 978 1472 
Q 1019 1388 1063 1300 
Q 1563 1150 2122 1115 
Q 2681 1081 3231 1075 
Q 3288 1000 3359 934 
Q 3431 869 3490 800 
Q 3550 731 3584 640 
Q 3619 550 3600 425 
Q 3494 319 3369 222 
Q 3244 125 3119 31 
Q 3063 25 2984 31 
Q 2906 38 2822 38 
Q 2738 38 2653 28 
Q 2569 19 2494 -13 
Q 2100 0 1687 84 
Q 1275 169 925 288 
Q 856 369 781 441 
Q 706 513 581 544 
z
" transform="scale(0.015625)"/>
      <path id="PermanentMarker-Regular-61" d="M 3306 525 
Q 3269 419 3197 309 
Q 3125 200 3028 115 
Q 2931 31 2812 -25 
Q 2694 -81 2563 -88 
Q 2481 -69 2453 -47 
Q 2425 -25 2394 -6 
Q 2375 6 2359 15 
Q 2344 25 2331 31 
L 2256 63 
L 2281 144 
Q 2294 194 2275 222 
Q 2256 250 2200 300 
Q 2181 319 2162 337 
Q 2144 356 2131 375 
L 2025 494 
L 2194 538 
Q 2350 581 2403 650 
Q 2456 719 2444 881 
Q 2319 906 2234 887 
Q 2150 869 2063 844 
Q 1950 813 1834 791 
Q 1719 769 1581 769 
Q 1531 769 1487 772 
Q 1444 775 1394 781 
L 1331 794 
Q 1319 863 1306 872 
Q 1294 881 1281 894 
Q 1250 925 1215 978 
Q 1181 1031 1200 1113 
Q 1169 1169 1163 1225 
Q 1125 1150 1106 1069 
L 1081 1006 
L 1019 994 
Q 1006 988 1000 966 
Q 994 944 994 931 
L 963 825 
Q 950 813 937 803 
Q 925 794 913 781 
Q 900 725 881 669 
Q 863 613 844 563 
Q 813 481 791 403 
Q 769 325 775 250 
L 750 181 
Q 719 144 681 122 
Q 644 100 606 81 
Q 594 69 572 59 
Q 550 50 538 44 
L 519 -25 
L 444 -38 
Q 375 -50 347 -56 
Q 319 -63 281 -63 
L 219 -56 
Q 150 0 112 34 
Q 75 69 25 100 
Q -31 175 -37 212 
Q -44 250 -50 281 
Q -63 319 -66 344 
Q -69 369 -81 381 
L -163 456 
L -94 513 
L -88 619 
Q 38 938 178 1231 
Q 319 1525 469 1831 
Q 519 1931 566 2031 
Q 613 2131 663 2231 
Q 656 2250 656 2275 
Q 656 2300 669 2331 
Q 738 2438 781 2522 
Q 825 2606 869 2694 
Q 919 2800 972 2900 
Q 1025 3000 1106 3106 
L 1206 3150 
Q 1225 3156 1250 3165 
Q 1275 3175 1306 3175 
L 1400 3163 
Q 1575 3244 1706 3391 
Q 1838 3538 1975 3744 
L 2038 3831 
L 2119 3781 
Q 2150 3763 2206 3747 
Q 2263 3731 2325 3713 
Q 2438 3688 2538 3656 
Q 2638 3625 2700 3563 
Q 2738 3463 2744 3413 
Q 2750 3363 2763 3313 
Q 2781 3206 2797 3100 
Q 2813 2994 2819 2863 
Q 2850 2756 2872 2653 
Q 2894 2550 2913 2444 
Q 2944 2294 2975 2153 
Q 3006 2013 3056 1888 
Q 3106 1888 3119 1881 
Q 3150 1894 3184 1900 
Q 3219 1906 3263 1913 
L 3331 1919 
L 3356 1856 
Q 3363 1825 3419 1794 
Q 3500 1788 3537 1759 
Q 3575 1731 3606 1700 
Q 3631 1675 3656 1663 
L 3750 1625 
L 3700 1531 
Q 3638 1419 3522 1316 
Q 3406 1213 3263 1144 
Q 3269 1106 3272 1072 
Q 3275 1038 3288 1000 
Q 3306 894 3318 781 
Q 3331 669 3319 550 
L 3306 525 
z
M 1500 1606 
Q 1688 1619 1841 1634 
Q 1994 1650 2181 1688 
Q 2138 1875 2088 2078 
Q 2038 2281 1981 2481 
L 1944 2419 
Q 1819 2288 1703 2125 
Q 1588 1963 1506 1819 
Q 1469 1763 1431 1706 
Q 1394 1650 1363 1594 
Q 1400 1600 1434 1600 
Q 1469 1600 1500 1606 
z
" transform="scale(0.015625)"/>
      <path id="PermanentMarker-Regular-6d" d="M 4325 113 
Q 4263 81 4209 56 
Q 4156 31 4088 31 
Q 3844 213 3834 663 
Q 3825 1113 4025 1806 
Q 4056 1825 4056 1881 
L 4000 1944 
Q 3975 1944 3953 1937 
Q 3931 1931 3919 1894 
Q 3756 1775 3562 1647 
Q 3369 1519 3159 1409 
Q 2950 1300 2734 1231 
Q 2519 1163 2313 1163 
Q 1788 1163 1525 1694 
L 1475 1788 
L 1425 1706 
Q 1406 1681 1368 1603 
Q 1331 1525 1293 1425 
Q 1256 1325 1228 1222 
Q 1200 1119 1206 1044 
Q 1150 988 1087 913 
Q 1025 838 994 744 
Q 981 694 1006 650 
Q 994 594 950 563 
Q 925 531 897 503 
Q 869 475 850 444 
Q 838 413 834 381 
Q 831 350 825 319 
Q 825 275 813 238 
Q 706 19 643 -47 
Q 581 -113 475 -113 
Q 425 -113 313 -94 
Q 231 -6 165 147 
Q 100 300 65 475 
Q 31 650 34 828 
Q 38 1006 94 1138 
Q 94 1144 144 1262 
Q 194 1381 272 1568 
Q 350 1756 450 1984 
Q 550 2213 650 2428 
Q 750 2644 840 2825 
Q 931 3006 994 3100 
Q 1044 3175 1084 3240 
Q 1125 3306 1163 3369 
Q 1275 3563 1378 3691 
Q 1481 3819 1681 3894 
Q 1819 3838 1881 3763 
L 1894 3694 
Q 1919 3631 1969 3631 
Q 2038 3613 2084 3597 
Q 2131 3581 2188 3569 
Q 2231 3519 2269 3450 
Q 2319 3375 2366 3303 
Q 2413 3231 2441 3159 
Q 2469 3088 2472 3013 
Q 2475 2938 2444 2856 
L 2450 2794 
Q 2481 2738 2463 2638 
Q 2456 2594 2456 2547 
Q 2456 2500 2469 2444 
Q 2581 2356 2669 2356 
Q 2769 2356 2853 2403 
Q 2938 2450 3013 2500 
Q 3063 2538 3113 2566 
Q 3163 2594 3213 2600 
Q 3325 2706 3415 2787 
Q 3506 2869 3606 2950 
Q 3794 3100 3969 3275 
Q 4144 3450 4250 3713 
Q 4313 3750 4381 3750 
Q 4450 3750 4525 3719 
Q 4600 3688 4669 3656 
Q 4688 3644 4703 3637 
Q 4719 3631 4731 3625 
Q 4731 3563 4781 3519 
Q 4806 3500 4812 3494 
Q 4819 3488 4831 3481 
Q 4925 3431 4950 3381 
Q 4994 3238 5106 3163 
Q 5094 3100 5109 3047 
Q 5125 2994 5150 2938 
Q 5156 2919 5162 2900 
Q 5169 2881 5181 2856 
L 5063 2869 
L 5081 2750 
Q 5094 2663 5066 2556 
Q 5038 2450 5000 2388 
Q 5006 2225 5009 2134 
Q 5013 2044 5000 1966 
Q 4988 1888 4966 1819 
Q 4944 1750 4906 1669 
Q 4931 1269 4815 941 
Q 4700 613 4575 325 
Q 4563 294 4547 262 
Q 4531 231 4519 200 
Q 4463 181 4419 159 
Q 4375 138 4325 113 
z
" transform="scale(0.015625)"/>
      <path id="PermanentMarker-Regular-65" d="M 3488 3519 
Q 3494 3475 3491 3453 
Q 3488 3431 3484 3412 
Q 3481 3394 3481 3372 
Q 3481 3350 3494 3306 
Q 3363 3094 3191 3016 
Q 3019 2938 2819 2903 
Q 2619 2869 2409 2831 
Q 2200 2794 1994 2669 
Q 1913 2700 1847 2669 
Q 1781 2638 1656 2650 
Q 1619 2613 1562 2597 
Q 1506 2581 1450 2563 
Q 1475 2506 1472 2447 
Q 1469 2388 1488 2350 
Q 1706 2331 1972 2356 
Q 2238 2381 2494 2388 
Q 2500 2356 2487 2347 
Q 2475 2338 2481 2313 
Q 2525 2281 2569 2234 
Q 2613 2188 2656 2144 
Q 2700 2100 2747 2072 
Q 2794 2044 2856 2050 
Q 2881 2000 2890 1940 
Q 2900 1881 2875 1819 
Q 2775 1750 2675 1678 
Q 2575 1606 2465 1550 
Q 2356 1494 2234 1459 
Q 2113 1425 1963 1431 
Q 1931 1431 1915 1431 
Q 1900 1431 1875 1450 
Q 1825 1419 1734 1431 
Q 1644 1444 1594 1413 
Q 1525 1444 1428 1441 
Q 1331 1438 1256 1463 
Q 1156 1331 1075 1181 
Q 994 1031 931 863 
Q 1144 831 1284 837 
Q 1425 844 1550 859 
Q 1675 875 1806 890 
Q 1938 906 2138 900 
Q 2263 969 2434 991 
Q 2606 1013 2750 1063 
Q 2800 1044 2837 997 
Q 2875 950 2909 909 
Q 2944 869 2981 837 
Q 3019 806 3075 813 
Q 3100 788 3109 753 
Q 3119 719 3125 687 
Q 3131 656 3147 634 
Q 3163 613 3200 619 
Q 3106 413 2984 303 
Q 2863 194 2706 137 
Q 2550 81 2359 50 
Q 2169 19 1938 -25 
Q 1881 -38 1843 -22 
Q 1806 -6 1756 -6 
Q 1613 -38 1413 -63 
Q 1213 -88 1006 -81 
Q 800 -75 612 -28 
Q 425 19 306 138 
Q 256 181 240 240 
Q 225 300 156 331 
Q 150 413 131 513 
Q 113 613 94 722 
Q 75 831 65 937 
Q 56 1044 75 1131 
Q 94 1225 153 1300 
Q 213 1375 194 1463 
Q 225 1469 231 1497 
Q 238 1525 281 1519 
Q 319 1631 362 1731 
Q 406 1831 453 1925 
Q 500 2019 547 2116 
Q 594 2213 638 2331 
Q 550 2413 509 2509 
Q 469 2606 450 2703 
Q 431 2800 418 2903 
Q 406 3006 375 3113 
Q 438 3206 528 3265 
Q 619 3325 725 3362 
Q 831 3400 956 3425 
Q 1081 3450 1219 3481 
Q 1469 3563 1666 3606 
Q 1863 3650 2053 3678 
Q 2244 3706 2450 3731 
Q 2656 3756 2919 3806 
Q 2975 3750 3025 3750 
Q 3050 3806 3084 3784 
Q 3119 3763 3113 3819 
Q 3175 3713 3272 3641 
Q 3369 3569 3488 3519 
z
" transform="scale(0.015625)"/>
      <path id="PermanentMarker-Regular-72" d="M 1006 650 
Q 938 400 884 272 
Q 831 144 725 6 
Q 644 19 612 -12 
Q 581 -44 544 -69 
Q 488 -81 463 -68 
Q 438 -56 419 -40 
Q 400 -25 372 -9 
Q 344 6 288 6 
Q 275 56 259 100 
Q 244 144 175 131 
Q 188 181 181 215 
Q 175 250 165 278 
Q 156 306 150 334 
Q 144 363 156 406 
Q 125 406 106 450 
Q 88 494 63 538 
Q 81 650 100 750 
Q 119 850 147 937 
Q 175 1025 194 1112 
Q 213 1200 175 1294 
Q 200 1275 212 1303 
Q 225 1331 231 1378 
Q 238 1425 238 1472 
Q 238 1519 231 1550 
Q 294 1713 334 1884 
Q 375 2056 409 2225 
Q 444 2394 481 2556 
Q 519 2719 581 2856 
Q 650 2869 734 2841 
Q 819 2813 838 2769 
Q 1000 2894 1125 3072 
Q 1250 3250 1381 3419 
Q 1513 3588 1672 3719 
Q 1831 3850 2075 3875 
Q 2200 3781 2353 3684 
Q 2506 3588 2606 3431 
Q 2656 3406 2690 3378 
Q 2725 3350 2775 3319 
L 2775 3244 
Q 2850 3175 2897 3084 
Q 2944 2994 2981 2891 
Q 3019 2788 3056 2684 
Q 3094 2581 3144 2488 
Q 3131 2456 3131 2434 
Q 3131 2413 3140 2388 
Q 3150 2363 3156 2338 
Q 3163 2313 3156 2269 
Q 3138 1994 2978 1825 
Q 2819 1656 2594 1547 
Q 2369 1438 2112 1363 
Q 1856 1288 1650 1200 
Q 1650 1175 1672 1175 
Q 1694 1175 1688 1144 
Q 1838 1050 1925 994 
Q 2013 938 2091 900 
Q 2169 863 2259 834 
Q 2350 806 2513 769 
Q 2675 731 2765 709 
Q 2856 688 2931 672 
Q 3006 656 3084 647 
Q 3163 638 3306 625 
Q 3363 569 3403 491 
Q 3444 413 3456 334 
Q 3469 256 3462 184 
Q 3456 113 3419 69 
Q 3425 50 3447 53 
Q 3469 56 3494 50 
Q 3456 25 3431 -12 
Q 3406 -50 3381 -87 
Q 3356 -125 3325 -153 
Q 3294 -181 3238 -188 
Q 3044 -263 2750 -197 
Q 2456 -131 2006 44 
Q 1781 131 1640 197 
Q 1500 263 1397 328 
Q 1294 394 1209 469 
Q 1125 544 1006 650 
z
M 1900 2794 
Q 1831 2694 1747 2612 
Q 1663 2531 1584 2447 
Q 1506 2363 1443 2259 
Q 1381 2156 1356 2019 
Q 1575 2044 1812 2141 
Q 2050 2238 2263 2325 
Q 2238 2519 2128 2637 
Q 2019 2756 1900 2794 
z
" transform="scale(0.015625)"/>
      <path id="PermanentMarker-Regular-6f" d="M 3644 1875 
Q 3638 1800 3656 1731 
Q 3675 1663 3703 1597 
Q 3731 1531 3756 1462 
Q 3781 1394 3794 1325 
Q 3806 1238 3793 1134 
Q 3781 1031 3750 934 
Q 3719 838 3669 759 
Q 3619 681 3550 644 
Q 3463 531 3338 468 
Q 3213 406 3106 319 
Q 3038 275 2953 256 
Q 2869 238 2781 219 
Q 2713 181 2619 140 
Q 2525 100 2425 65 
Q 2325 31 2225 15 
Q 2125 0 2050 6 
Q 1863 -63 1684 -84 
Q 1506 -106 1269 -56 
Q 1044 -88 853 -37 
Q 663 13 516 122 
Q 369 231 259 384 
Q 150 538 81 706 
Q 31 1063 106 1353 
Q 181 1644 322 1891 
Q 463 2138 644 2347 
Q 825 2556 994 2756 
Q 1031 2744 1053 2759 
Q 1075 2775 1094 2803 
Q 1113 2831 1134 2856 
Q 1156 2881 1188 2888 
Q 1231 2981 1315 3028 
Q 1400 3075 1450 3163 
Q 1506 3175 1543 3200 
Q 1581 3225 1615 3256 
Q 1650 3288 1687 3316 
Q 1725 3344 1775 3356 
L 1775 3425 
Q 1888 3475 1941 3540 
Q 1994 3606 2069 3700 
Q 2125 3706 2159 3706 
Q 2194 3706 2263 3719 
Q 2313 3806 2353 3850 
Q 2394 3894 2475 3944 
Q 2550 3906 2640 3893 
Q 2731 3881 2800 3813 
Q 2806 3750 2837 3715 
Q 2869 3681 2906 3653 
Q 2944 3625 2978 3594 
Q 3013 3563 3025 3506 
Q 3050 3500 3059 3512 
Q 3069 3525 3094 3519 
Q 3113 3431 3138 3403 
Q 3163 3375 3188 3294 
Q 3156 3231 3140 3165 
Q 3125 3100 3063 3069 
Q 3056 3025 3087 3022 
Q 3119 3019 3125 2988 
Q 3131 2931 3106 2906 
Q 3256 2663 3375 2391 
Q 3494 2119 3644 1875 
z
M 2863 1281 
Q 2888 1350 2928 1394 
Q 2969 1438 2975 1525 
Q 2944 1575 2937 1603 
Q 2931 1631 2931 1694 
Q 2794 1888 2694 2109 
Q 2594 2331 2469 2525 
Q 2456 2500 2425 2475 
Q 2394 2450 2356 2488 
Q 2344 2438 2312 2416 
Q 2281 2394 2243 2397 
Q 2206 2400 2165 2415 
Q 2125 2431 2094 2456 
Q 1913 2313 1731 2175 
Q 1550 2038 1406 1856 
Q 1381 1844 1375 1847 
Q 1369 1850 1338 1838 
Q 1288 1719 1216 1622 
Q 1144 1525 1075 1425 
Q 1006 1325 956 1212 
Q 906 1100 900 950 
Q 1006 863 1150 844 
Q 1294 825 1447 837 
Q 1600 850 1747 878 
Q 1894 906 2019 906 
Q 2281 969 2468 1072 
Q 2656 1175 2863 1281 
z
" transform="scale(0.015625)"/>
      <path id="PermanentMarker-Regular-6e" d="M 1281 1138 
Q 1225 1125 1200 1072 
Q 1175 1019 1153 962 
Q 1131 906 1109 859 
Q 1088 813 1044 813 
Q 1038 763 1009 725 
Q 981 688 956 647 
Q 931 606 918 559 
Q 906 513 931 450 
Q 881 413 868 344 
Q 856 275 840 212 
Q 825 150 787 106 
Q 750 63 650 69 
Q 631 44 643 37 
Q 656 31 663 -6 
Q 594 6 559 -16 
Q 525 -38 475 -44 
Q 356 -6 278 87 
Q 200 181 140 297 
Q 81 413 34 531 
Q -13 650 -56 738 
Q -38 806 -50 872 
Q -63 938 -94 981 
Q 213 1631 575 2368 
Q 938 3106 1263 3825 
Q 1406 3769 1547 3697 
Q 1688 3625 1803 3531 
Q 1919 3438 2000 3316 
Q 2081 3194 2106 3044 
Q 2094 3006 2078 3015 
Q 2063 3025 2050 3006 
Q 2075 2975 2078 2962 
Q 2081 2950 2078 2937 
Q 2075 2925 2075 2903 
Q 2075 2881 2094 2844 
Q 2069 2850 2059 2837 
Q 2050 2825 2019 2838 
Q 2044 2769 2034 2725 
Q 2025 2681 2006 2647 
Q 1988 2613 1975 2572 
Q 1963 2531 1981 2469 
Q 1963 2469 1953 2459 
Q 1944 2450 1937 2440 
Q 1931 2431 1922 2422 
Q 1913 2413 1894 2419 
Q 1913 2281 1906 2143 
Q 1900 2006 1897 1865 
Q 1894 1725 1900 1572 
Q 1906 1419 1944 1256 
Q 2169 1388 2303 1594 
Q 2438 1800 2522 2056 
Q 2606 2313 2650 2606 
Q 2694 2900 2744 3206 
Q 2800 3263 2831 3344 
Q 2863 3425 2888 3515 
Q 2913 3606 2938 3697 
Q 2963 3788 3000 3863 
Q 3094 3850 3159 3803 
Q 3225 3756 3281 3703 
Q 3338 3650 3400 3603 
Q 3463 3556 3556 3544 
Q 3631 3438 3693 3338 
Q 3756 3238 3775 3125 
Q 3744 3075 3728 3012 
Q 3713 2950 3694 2887 
Q 3675 2825 3644 2772 
Q 3613 2719 3556 2681 
Q 3538 2519 3509 2384 
Q 3481 2250 3453 2119 
Q 3425 1988 3406 1847 
Q 3388 1706 3394 1538 
Q 3344 1394 3287 1231 
Q 3231 1069 3200 938 
Q 3100 856 3044 743 
Q 2988 631 2925 519 
Q 2900 494 2894 506 
Q 2888 519 2850 525 
Q 2856 500 2850 487 
Q 2844 475 2834 465 
Q 2825 456 2822 437 
Q 2819 419 2831 388 
Q 2744 350 2675 281 
Q 2606 213 2528 156 
Q 2450 100 2340 81 
Q 2231 63 2056 125 
Q 1800 313 1603 556 
Q 1406 800 1281 1138 
z
" transform="scale(0.015625)"/>
      <path id="PermanentMarker-Regular-20" transform="scale(0.015625)"/>
      <path id="PermanentMarker-Regular-41" d="M -163 594 
L -81 656 
L -75 788 
Q 81 1169 247 1519 
Q 413 1869 594 2238 
Q 650 2356 709 2475 
Q 769 2594 825 2719 
Q 819 2744 819 2772 
Q 819 2800 831 2838 
Q 919 2963 972 3063 
Q 1025 3163 1075 3269 
Q 1131 3394 1197 3519 
Q 1263 3644 1363 3763 
L 1406 3825 
L 1475 3819 
Q 1500 3831 1528 3840 
Q 1556 3850 1600 3850 
L 1713 3831 
Q 1919 3925 2078 4103 
Q 2238 4281 2400 4531 
L 2475 4638 
L 2575 4575 
Q 2606 4556 2675 4537 
Q 2744 4519 2819 4494 
Q 2950 4463 3075 4422 
Q 3200 4381 3269 4313 
L 3300 4256 
Q 3313 4188 3322 4131 
Q 3331 4075 3344 4019 
Q 3369 3888 3387 3759 
Q 3406 3631 3413 3475 
Q 3444 3350 3472 3222 
Q 3500 3094 3525 2969 
Q 3556 2788 3593 2622 
Q 3631 2456 3694 2306 
Q 3756 2306 3769 2300 
Q 3844 2331 3944 2338 
L 4025 2344 
L 4050 2269 
Q 4063 2250 4081 2231 
Q 4100 2213 4125 2194 
Q 4225 2188 4272 2153 
Q 4319 2119 4350 2088 
Q 4363 2075 4381 2059 
Q 4400 2044 4413 2038 
L 4525 1994 
L 4463 1875 
Q 4394 1744 4253 1619 
Q 4113 1494 3938 1413 
Q 3950 1369 3953 1331 
Q 3956 1294 3969 1244 
Q 3994 1119 4009 984 
Q 4025 850 4006 706 
Q 3944 544 3859 416 
Q 3775 288 3659 184 
Q 3544 81 3400 15 
Q 3256 -50 3100 -56 
Q 3013 -38 2972 -12 
Q 2931 13 2900 38 
Q 2850 75 2819 88 
L 2738 125 
L 2763 219 
Q 2781 269 2759 306 
Q 2738 344 2669 406 
Q 2644 425 2625 447 
Q 2606 469 2581 494 
L 2456 638 
L 2663 694 
Q 2850 744 2912 822 
Q 2975 900 2963 1100 
Q 2806 1131 2706 1109 
Q 2606 1088 2506 1063 
Q 2363 1025 2225 997 
Q 2088 969 1925 969 
Q 1819 969 1700 988 
L 1631 994 
L 1613 1063 
Q 1613 1075 1597 1090 
Q 1581 1106 1569 1119 
Q 1538 1156 1494 1218 
Q 1450 1281 1475 1375 
Q 1431 1444 1425 1519 
Q 1400 1469 1384 1422 
Q 1369 1375 1356 1331 
L 1331 1250 
L 1250 1238 
Q 1238 1225 1228 1200 
Q 1219 1175 1225 1163 
L 1250 1094 
L 1188 1038 
Q 1175 1019 1156 1006 
Q 1138 994 1125 981 
Q 1113 913 1091 850 
Q 1069 788 1044 725 
Q 1013 625 984 531 
Q 956 438 956 344 
L 931 263 
Q 900 213 853 188 
Q 806 163 763 144 
Q 700 119 675 94 
L 656 13 
L 563 0 
Q 481 -19 447 -25 
Q 413 -31 369 -31 
L 288 -25 
Q 213 50 166 90 
Q 119 131 56 163 
L 19 213 
Q -6 263 -12 303 
Q -19 344 -31 388 
Q -44 469 -69 500 
L -163 594 
z
M 1831 2219 
Q 1744 2094 1663 1956 
Q 1706 1963 1747 1963 
Q 1788 1963 1831 1969 
Q 2050 1981 2237 2000 
Q 2425 2019 2644 2063 
Q 2594 2294 2534 2534 
Q 2475 2775 2406 3019 
L 2375 2956 
Q 2219 2788 2075 2594 
Q 1931 2400 1838 2225 
L 1831 2219 
z
" transform="scale(0.015625)"/>
      <path id="PermanentMarker-Regular-62" d="M 3431 1019 
Q 3469 1000 3475 956 
Q 3481 913 3475 888 
Q 3363 744 3319 687 
Q 3275 631 3256 603 
Q 3238 575 3216 556 
Q 3194 538 3119 475 
Q 2838 306 2541 175 
Q 2244 44 1919 -6 
Q 1869 -75 1728 -103 
Q 1588 -131 1469 -156 
Q 1444 -144 1441 -122 
Q 1438 -100 1413 -88 
Q 1406 -150 1356 -153 
Q 1306 -156 1234 -128 
Q 1163 -100 1084 -53 
Q 1006 -6 950 31 
Q 919 -19 884 -69 
Q 850 -119 800 -138 
Q 731 -125 697 -119 
Q 663 -113 631 -144 
Q 594 -125 572 -100 
Q 550 -75 528 -53 
Q 506 -31 478 -12 
Q 450 6 400 19 
Q 413 44 388 97 
Q 363 150 313 163 
Q 338 206 291 272 
Q 244 338 219 419 
Q 231 488 237 569 
Q 244 650 313 663 
Q 306 706 293 737 
Q 281 769 269 800 
Q 313 838 331 891 
Q 350 944 362 1000 
Q 375 1056 394 1112 
Q 413 1169 463 1206 
Q 519 1394 550 1484 
Q 581 1575 597 1662 
Q 613 1750 634 1850 
Q 656 1950 713 2100 
Q 706 2194 731 2266 
Q 756 2338 784 2409 
Q 813 2481 831 2559 
Q 850 2638 825 2744 
Q 738 2738 700 2684 
Q 663 2631 650 2544 
Q 600 2494 528 2497 
Q 456 2500 400 2481 
Q 181 2569 37 2731 
Q -106 2894 -194 3113 
Q -138 3256 -25 3353 
Q 88 3450 231 3515 
Q 375 3581 537 3622 
Q 700 3663 850 3700 
Q 1094 3744 1337 3800 
Q 1581 3856 1863 3838 
Q 1900 3856 1953 3859 
Q 2006 3863 2062 3863 
Q 2119 3863 2172 3866 
Q 2225 3869 2263 3888 
Q 2294 3850 2353 3840 
Q 2413 3831 2481 3781 
Q 2556 3838 2609 3806 
Q 2663 3775 2706 3737 
Q 2750 3700 2790 3669 
Q 2831 3638 2875 3638 
Q 2919 3581 2984 3531 
Q 3050 3481 3109 3428 
Q 3169 3375 3209 3312 
Q 3250 3250 3250 3169 
Q 3244 3138 3269 3131 
Q 3294 3125 3306 3106 
Q 3313 2913 3247 2772 
Q 3181 2631 3084 2512 
Q 2988 2394 2872 2287 
Q 2756 2181 2663 2063 
Q 2725 1981 2806 1918 
Q 2888 1856 2972 1793 
Q 3056 1731 3131 1662 
Q 3206 1594 3256 1500 
Q 3269 1488 3287 1478 
Q 3306 1469 3325 1456 
Q 3344 1394 3375 1328 
Q 3406 1263 3428 1203 
Q 3450 1144 3456 1097 
Q 3463 1050 3431 1019 
z
M 2331 3106 
Q 2013 3119 1697 3050 
Q 1381 2981 1169 2856 
Q 1275 2769 1384 2700 
Q 1494 2631 1556 2513 
Q 1800 2613 1987 2766 
Q 2175 2919 2331 3106 
z
M 2413 1113 
Q 2431 1175 2481 1212 
Q 2531 1250 2581 1284 
Q 2631 1319 2668 1359 
Q 2706 1400 2700 1475 
Q 2500 1581 2334 1603 
Q 2169 1625 2022 1603 
Q 1875 1581 1740 1537 
Q 1606 1494 1469 1475 
Q 1400 1294 1325 1081 
Q 1250 869 1181 669 
Q 1369 694 1525 747 
Q 1681 800 1828 862 
Q 1975 925 2115 990 
Q 2256 1056 2413 1113 
z
" transform="scale(0.015625)"/>
      <path id="PermanentMarker-Regular-73" d="M 100 2813 
Q 144 2944 241 3037 
Q 338 3131 453 3197 
Q 569 3263 694 3306 
Q 819 3350 931 3381 
Q 1181 3488 1465 3584 
Q 1750 3681 2047 3756 
Q 2344 3831 2656 3853 
Q 2969 3875 3313 3775 
Q 3331 3713 3368 3656 
Q 3406 3600 3447 3544 
Q 3488 3488 3519 3434 
Q 3550 3381 3556 3325 
Q 3619 3269 3656 3203 
Q 3694 3138 3669 3031 
Q 3606 2981 3547 2940 
Q 3488 2900 3419 2869 
Q 3188 2925 2950 2906 
Q 2713 2888 2525 2875 
Q 2469 2931 2391 2931 
Q 2313 2931 2228 2906 
Q 2144 2881 2059 2856 
Q 1975 2831 1900 2844 
Q 1838 2794 1747 2778 
Q 1656 2763 1550 2750 
Q 1544 2719 1562 2709 
Q 1581 2700 1569 2669 
Q 1606 2625 1665 2606 
Q 1725 2588 1790 2569 
Q 1856 2550 1906 2522 
Q 1956 2494 1975 2431 
Q 2069 2431 2137 2387 
Q 2206 2344 2250 2281 
Q 2294 2219 2316 2147 
Q 2338 2075 2338 2019 
Q 2356 1969 2381 1975 
Q 2406 1981 2438 1950 
Q 2456 1869 2531 1784 
Q 2606 1700 2650 1600 
Q 2663 1444 2669 1322 
Q 2675 1200 2625 1075 
Q 2531 844 2365 662 
Q 2200 481 1990 340 
Q 1781 200 1543 100 
Q 1306 0 1081 -69 
Q 1056 -63 1031 -69 
Q 1006 -75 1019 -38 
Q 969 -81 909 -93 
Q 850 -106 781 -103 
Q 713 -100 641 -94 
Q 569 -88 506 -100 
Q 463 -56 428 -15 
Q 394 25 375 88 
Q 344 88 347 119 
Q 350 150 325 150 
Q 363 213 359 222 
Q 356 231 340 237 
Q 325 244 312 253 
Q 300 263 306 281 
Q 331 331 325 397 
Q 319 463 312 531 
Q 306 600 322 662 
Q 338 725 413 763 
Q 625 738 815 778 
Q 1006 819 1175 894 
Q 1344 969 1497 1056 
Q 1650 1144 1800 1213 
Q 1819 1269 1853 1306 
Q 1888 1344 1925 1375 
Q 1963 1406 1994 1443 
Q 2025 1481 2038 1538 
Q 2044 1581 2016 1590 
Q 1988 1600 1988 1638 
L 1919 1656 
Q 1800 1725 1650 1772 
Q 1500 1819 1394 1875 
Q 1325 1838 1265 1856 
Q 1206 1875 1113 1894 
Q 900 1906 703 1937 
Q 506 1969 325 2050 
Q 313 2081 294 2106 
Q 275 2131 225 2119 
Q 188 2169 150 2216 
Q 113 2263 81 2319 
Q 94 2394 100 2447 
Q 106 2500 63 2550 
Q 88 2631 100 2681 
Q 113 2731 100 2813 
z
" transform="scale(0.015625)"/>
     </defs>
     <use xlink:href="#PermanentMarker-Regular-43"/>
     <use xlink:href="#PermanentMarker-Regular-61" x="61.132812"/>
     <use xlink:href="#PermanentMarker-Regular-6d" x="119.238281"/>
     <use xlink:href="#PermanentMarker-Regular-65" x="200.683594"/>
     <use xlink:href="#PermanentMarker-Regular-72" x="251.832031"/>
     <use xlink:href="#PermanentMarker-Regular-6f" x="305.933594"/>
     <use xlink:href="#PermanentMarker-Regular-6e" x="368.824219"/>
     <use xlink:href="#PermanentMarker-Regular-20" x="425.269531"/>
     <use xlink:href="#PermanentMarker-Regular-41" x="462.28125"/>
     <use xlink:href="#PermanentMarker-Regular-6d" x="532.496094"/>
     <use xlink:href="#PermanentMarker-Regular-62" x="613.941406"/>
     <use xlink:href="#PermanentMarker-Regular-72" x="671.265625"/>
     <use xlink:href="#PermanentMarker-Regular-6f" x="725.367188"/>
     <use xlink:href="#PermanentMarker-Regular-73" x="786.257812"/>
     <use xlink:href="#PermanentMarker-Regular-65" x="832.644531"/>
    </g>
   </g>
  </g>
 </g>
</svg>
