<?xml version="1.0" encoding="utf-8" standalone="no"?>
<!DOCTYPE svg PUBLIC "-//W3C//DTD SVG 1.1//EN"
  "http://www.w3.org/Graphics/SVG/1.1/DTD/svg11.dtd">
<svg xmlns:xlink="http://www.w3.org/1999/xlink" width="198.8475pt" height="21.635122pt" viewBox="0 0 198.8475 21.635122" xmlns="http://www.w3.org/2000/svg" version="1.1">
 <metadata>
  <rdf:RDF xmlns:dc="http://purl.org/dc/elements/1.1/" xmlns:cc="http://creativecommons.org/ns#" xmlns:rdf="http://www.w3.org/1999/02/22-rdf-syntax-ns#">
   <cc:Work>
    <dc:type rdf:resource="http://purl.org/dc/dcmitype/StillImage"/>
    <dc:date>2024-07-19T16:28:32.560569</dc:date>
    <dc:format>image/svg+xml</dc:format>
    <dc:creator>
     <cc:Agent>
      <dc:title>Matplotlib v3.9.1, https://matplotlib.org/</dc:title>
     </cc:Agent>
    </dc:creator>
   </cc:Work>
  </rdf:RDF>
 </metadata>
 <defs>
  <style type="text/css">*{stroke-linejoin: round; stroke-linecap: butt}</style>
 </defs>
 <g id="figure_1">
  <g id="patch_1">
   <path d="M 0 21.635122 
L 198.8475 21.635122 
L 198.8475 0 
L 0 0 
L 0 21.635122 
z
" style="fill: none"/>
  </g>
  <g id="axes_1">
   <g id="text_1">
    <!-- Matt Sutherland -->
    <g style="fill: #62d84e" transform="translate(0 19.148186) scale(0.24 -0.24)">
     <defs>
      <path id="PermanentMarker-Regular-4d" d="M 563 -88 
Q 500 -88 369 -69 
Q 269 38 191 222 
Q 113 406 72 615 
Q 31 825 34 1034 
Q 38 1244 106 1406 
Q 106 1413 165 1556 
Q 225 1700 319 1922 
Q 413 2144 531 2416 
Q 650 2688 769 2950 
Q 888 3213 997 3428 
Q 1106 3644 1188 3763 
Q 1244 3850 1291 3931 
Q 1338 4013 1381 4081 
Q 1450 4194 1509 4291 
Q 1569 4388 1641 4466 
Q 1713 4544 1800 4603 
Q 1888 4663 2013 4706 
Q 2088 4675 2144 4640 
Q 2200 4606 2244 4556 
L 2263 4469 
Q 2275 4425 2303 4409 
Q 2331 4394 2350 4394 
Q 2431 4375 2490 4353 
Q 2550 4331 2619 4325 
Q 2644 4288 2666 4250 
Q 2688 4213 2713 4181 
Q 2838 4000 2919 3831 
Q 3000 3663 2919 3463 
L 2925 3394 
Q 2956 3350 2956 3312 
Q 2956 3275 2944 3206 
Q 2938 3156 2934 3097 
Q 2931 3038 2950 2969 
L 2994 2919 
Q 3094 2869 3188 2869 
Q 3313 2869 3413 2925 
Q 3513 2981 3600 3038 
Q 3669 3088 3728 3119 
Q 3788 3150 3844 3163 
Q 3975 3288 4084 3384 
Q 4194 3481 4313 3581 
Q 4538 3763 4750 3972 
Q 4963 4181 5088 4494 
Q 5156 4538 5244 4538 
Q 5331 4538 5418 4503 
Q 5506 4469 5594 4425 
Q 5613 4413 5628 4406 
Q 5644 4400 5663 4388 
Q 5663 4319 5719 4263 
Q 5750 4238 5762 4231 
Q 5775 4225 5788 4219 
Q 5838 4188 5872 4163 
Q 5906 4138 5925 4094 
Q 5981 3925 6113 3831 
Q 6100 3763 6119 3697 
Q 6138 3631 6163 3569 
Q 6175 3544 6181 3522 
Q 6188 3500 6200 3469 
L 6063 3481 
L 6081 3344 
Q 6100 3238 6065 3106 
Q 6031 2975 5988 2900 
Q 6000 2713 6000 2603 
Q 6000 2494 5987 2400 
Q 5975 2306 5947 2222 
Q 5919 2138 5875 2044 
Q 5900 1569 5765 1175 
Q 5631 781 5475 438 
Q 5456 394 5437 356 
Q 5419 319 5406 281 
Q 5338 263 5281 238 
Q 5225 213 5175 181 
Q 5106 138 5037 109 
Q 4969 81 4894 81 
Q 4594 300 4584 837 
Q 4575 1375 4813 2206 
Q 4856 2238 4850 2300 
L 4850 2369 
L 4788 2375 
Q 4756 2375 4731 2369 
Q 4706 2363 4694 2313 
Q 4494 2169 4259 2016 
Q 4025 1863 3775 1734 
Q 3525 1606 3265 1522 
Q 3006 1438 2763 1438 
Q 2138 1438 1819 2075 
L 1763 2188 
L 1700 2088 
Q 1681 2056 1634 1965 
Q 1588 1875 1541 1756 
Q 1494 1638 1459 1513 
Q 1425 1388 1438 1294 
Q 1363 1225 1291 1137 
Q 1219 1050 1188 938 
Q 1175 906 1181 878 
Q 1188 850 1200 819 
Q 1194 775 1175 756 
Q 1156 738 1131 719 
Q 1100 688 1069 653 
Q 1038 619 1013 575 
Q 1000 538 994 497 
Q 988 456 981 425 
Q 981 356 963 331 
Q 900 200 853 115 
Q 806 31 762 -12 
Q 719 -56 672 -72 
Q 625 -88 563 -88 
z
" transform="scale(0.015625)"/>
      <path id="PermanentMarker-Regular-61" d="M 3306 525 
Q 3269 419 3197 309 
Q 3125 200 3028 115 
Q 2931 31 2812 -25 
Q 2694 -81 2563 -88 
Q 2481 -69 2453 -47 
Q 2425 -25 2394 -6 
Q 2375 6 2359 15 
Q 2344 25 2331 31 
L 2256 63 
L 2281 144 
Q 2294 194 2275 222 
Q 2256 250 2200 300 
Q 2181 319 2162 337 
Q 2144 356 2131 375 
L 2025 494 
L 2194 538 
Q 2350 581 2403 650 
Q 2456 719 2444 881 
Q 2319 906 2234 887 
Q 2150 869 2063 844 
Q 1950 813 1834 791 
Q 1719 769 1581 769 
Q 1531 769 1487 772 
Q 1444 775 1394 781 
L 1331 794 
Q 1319 863 1306 872 
Q 1294 881 1281 894 
Q 1250 925 1215 978 
Q 1181 1031 1200 1113 
Q 1169 1169 1163 1225 
Q 1125 1150 1106 1069 
L 1081 1006 
L 1019 994 
Q 1006 988 1000 966 
Q 994 944 994 931 
L 963 825 
Q 950 813 937 803 
Q 925 794 913 781 
Q 900 725 881 669 
Q 863 613 844 563 
Q 813 481 791 403 
Q 769 325 775 250 
L 750 181 
Q 719 144 681 122 
Q 644 100 606 81 
Q 594 69 572 59 
Q 550 50 538 44 
L 519 -25 
L 444 -38 
Q 375 -50 347 -56 
Q 319 -63 281 -63 
L 219 -56 
Q 150 0 112 34 
Q 75 69 25 100 
Q -31 175 -37 212 
Q -44 250 -50 281 
Q -63 319 -66 344 
Q -69 369 -81 381 
L -163 456 
L -94 513 
L -88 619 
Q 38 938 178 1231 
Q 319 1525 469 1831 
Q 519 1931 566 2031 
Q 613 2131 663 2231 
Q 656 2250 656 2275 
Q 656 2300 669 2331 
Q 738 2438 781 2522 
Q 825 2606 869 2694 
Q 919 2800 972 2900 
Q 1025 3000 1106 3106 
L 1206 3150 
Q 1225 3156 1250 3165 
Q 1275 3175 1306 3175 
L 1400 3163 
Q 1575 3244 1706 3391 
Q 1838 3538 1975 3744 
L 2038 3831 
L 2119 3781 
Q 2150 3763 2206 3747 
Q 2263 3731 2325 3713 
Q 2438 3688 2538 3656 
Q 2638 3625 2700 3563 
Q 2738 3463 2744 3413 
Q 2750 3363 2763 3313 
Q 2781 3206 2797 3100 
Q 2813 2994 2819 2863 
Q 2850 2756 2872 2653 
Q 2894 2550 2913 2444 
Q 2944 2294 2975 2153 
Q 3006 2013 3056 1888 
Q 3106 1888 3119 1881 
Q 3150 1894 3184 1900 
Q 3219 1906 3263 1913 
L 3331 1919 
L 3356 1856 
Q 3363 1825 3419 1794 
Q 3500 1788 3537 1759 
Q 3575 1731 3606 1700 
Q 3631 1675 3656 1663 
L 3750 1625 
L 3700 1531 
Q 3638 1419 3522 1316 
Q 3406 1213 3263 1144 
Q 3269 1106 3272 1072 
Q 3275 1038 3288 1000 
Q 3306 894 3318 781 
Q 3331 669 3319 550 
L 3306 525 
z
M 1500 1606 
Q 1688 1619 1841 1634 
Q 1994 1650 2181 1688 
Q 2138 1875 2088 2078 
Q 2038 2281 1981 2481 
L 1944 2419 
Q 1819 2288 1703 2125 
Q 1588 1963 1506 1819 
Q 1469 1763 1431 1706 
Q 1394 1650 1363 1594 
Q 1400 1600 1434 1600 
Q 1469 1600 1500 1606 
z
" transform="scale(0.015625)"/>
      <path id="PermanentMarker-Regular-74" d="M 3556 3006 
Q 3400 3006 3219 2984 
Q 3038 2963 2863 2938 
Q 2738 2919 2622 2906 
Q 2506 2894 2413 2888 
Q 2369 2750 2325 2644 
Q 2281 2538 2231 2438 
Q 2181 2331 2140 2222 
Q 2100 2113 2063 1988 
Q 2000 1888 1959 1803 
Q 1919 1719 1894 1613 
Q 1819 1519 1781 1416 
Q 1744 1313 1725 1238 
L 1700 1163 
Q 1663 1125 1656 1103 
Q 1650 1081 1625 1063 
Q 1619 994 1581 925 
Q 1569 894 1562 866 
Q 1556 838 1556 825 
Q 1556 763 1525 744 
Q 1531 713 1525 678 
Q 1519 644 1513 613 
Q 1494 538 1500 494 
Q 1519 469 1534 450 
Q 1550 431 1556 400 
Q 1594 375 1613 369 
Q 1638 350 1688 325 
L 1744 263 
Q 1775 81 1688 -25 
Q 1594 -144 1369 -144 
L 1294 -144 
Q 1263 -113 1256 -94 
Q 1206 -75 1175 -62 
Q 1144 -50 1119 -13 
Q 1038 25 988 50 
L 931 81 
Q 931 150 931 156 
Q 888 213 866 281 
Q 844 350 831 419 
Q 819 475 803 525 
Q 788 575 763 613 
Q 750 975 831 1225 
Q 913 1475 1000 1706 
Q 1050 1831 1100 1959 
Q 1150 2088 1188 2225 
L 1244 2288 
Q 1288 2388 1316 2453 
Q 1344 2519 1375 2588 
Q 1394 2631 1409 2672 
Q 1425 2713 1438 2744 
Q 1400 2744 1369 2741 
Q 1338 2738 1306 2731 
Q 1269 2725 1237 2722 
Q 1206 2719 1175 2719 
Q 1131 2719 1113 2725 
Q 1044 2694 963 2694 
L 900 2694 
Q 881 2694 865 2697 
Q 850 2700 838 2700 
Q 775 2700 738 2681 
Q 663 2681 594 2681 
L 531 2681 
Q 519 2681 500 2678 
Q 481 2675 469 2675 
Q 425 2675 375 2684 
Q 325 2694 269 2725 
Q 194 2825 169 2831 
L 113 2906 
Q 106 2944 93 2978 
Q 81 3013 69 3056 
Q 44 3119 22 3191 
Q 0 3263 0 3363 
Q 6 3413 25 3438 
Q 44 3463 56 3481 
L 75 3575 
L 156 3569 
L 331 3569 
Q 531 3569 737 3584 
Q 944 3600 1163 3619 
Q 1288 3631 1416 3643 
Q 1544 3656 1681 3669 
Q 1706 3725 1731 3775 
L 1794 3806 
Q 1906 3813 1953 3778 
Q 2000 3744 2031 3713 
Q 2169 3725 2309 3740 
Q 2450 3756 2594 3781 
Q 2806 3813 3022 3838 
Q 3238 3863 3438 3863 
Q 3525 3863 3606 3856 
Q 3688 3850 3756 3838 
L 3819 3794 
Q 3838 3756 3872 3725 
Q 3906 3694 3944 3663 
Q 4019 3594 4094 3500 
Q 4169 3406 4150 3225 
Q 4100 3150 4075 3138 
L 4019 3063 
L 3956 3069 
Q 3919 3069 3887 3059 
Q 3856 3050 3825 3038 
Q 3800 3025 3775 3015 
Q 3750 3006 3719 3000 
Q 3663 3000 3628 3003 
Q 3594 3006 3556 3006 
z
" transform="scale(0.015625)"/>
      <path id="PermanentMarker-Regular-20" transform="scale(0.015625)"/>
      <path id="PermanentMarker-Regular-53" d="M 81 2819 
Q 100 2913 106 2972 
Q 113 3031 63 3100 
Q 88 3200 103 3256 
Q 119 3313 106 3413 
Q 163 3575 278 3687 
Q 394 3800 531 3878 
Q 669 3956 819 4009 
Q 969 4063 1100 4100 
Q 1100 4125 1075 4125 
Q 1050 4125 1063 4156 
Q 1400 4219 1740 4337 
Q 2081 4456 2437 4550 
Q 2794 4644 3169 4666 
Q 3544 4688 3956 4569 
Q 3981 4494 4025 4425 
Q 4069 4356 4116 4290 
Q 4163 4225 4200 4162 
Q 4238 4100 4244 4031 
Q 4319 3963 4366 3884 
Q 4413 3806 4381 3675 
Q 4313 3625 4238 3575 
Q 4163 3525 4081 3481 
Q 3800 3550 3519 3531 
Q 3238 3513 3013 3488 
Q 2944 3563 2850 3559 
Q 2756 3556 2653 3528 
Q 2550 3500 2450 3472 
Q 2350 3444 2263 3456 
Q 2194 3394 2081 3372 
Q 1969 3350 1844 3338 
Q 1838 3306 1856 3293 
Q 1875 3281 1863 3244 
Q 1906 3188 1981 3166 
Q 2056 3144 2134 3125 
Q 2213 3106 2275 3072 
Q 2338 3038 2356 2963 
Q 2469 2956 2550 2903 
Q 2631 2850 2687 2775 
Q 2744 2700 2769 2615 
Q 2794 2531 2788 2463 
Q 2813 2400 2841 2412 
Q 2869 2425 2906 2381 
Q 2931 2288 3022 2184 
Q 3113 2081 3163 1963 
Q 3175 1775 3184 1625 
Q 3194 1475 3131 1331 
Q 3025 1056 2825 837 
Q 2625 619 2372 453 
Q 2119 288 1837 166 
Q 1556 44 1281 -38 
Q 1256 -31 1222 -37 
Q 1188 -44 1206 0 
Q 1150 -50 1078 -62 
Q 1006 -75 922 -72 
Q 838 -69 753 -62 
Q 669 -56 588 -69 
Q 538 -19 497 31 
Q 456 81 431 150 
Q 400 156 403 190 
Q 406 225 375 225 
Q 375 250 381 262 
Q 388 275 394 288 
Q 419 306 416 315 
Q 413 325 397 334 
Q 381 344 365 356 
Q 350 369 356 388 
Q 388 444 378 522 
Q 369 600 362 681 
Q 356 763 375 834 
Q 394 906 481 956 
Q 738 931 966 981 
Q 1194 1031 1397 1118 
Q 1600 1206 1784 1309 
Q 1969 1413 2144 1500 
Q 2163 1563 2203 1606 
Q 2244 1650 2287 1690 
Q 2331 1731 2368 1778 
Q 2406 1825 2425 1894 
Q 2431 1919 2425 1931 
Q 2419 1944 2406 1953 
Q 2394 1963 2381 1975 
Q 2369 1988 2369 2013 
Q 2350 2019 2334 2025 
Q 2319 2031 2306 2031 
Q 2144 2113 1962 2169 
Q 1781 2225 1656 2294 
Q 1581 2244 1506 2269 
Q 1431 2294 1325 2319 
Q 1063 2331 828 2368 
Q 594 2406 375 2500 
Q 363 2538 344 2566 
Q 325 2594 256 2581 
Q 213 2644 166 2697 
Q 119 2750 81 2819 
z
" transform="scale(0.015625)"/>
      <path id="PermanentMarker-Regular-75" d="M 3688 3556 
Q 3700 3419 3731 3319 
Q 3763 3219 3800 3125 
Q 3831 3038 3859 2953 
Q 3888 2869 3900 2750 
Q 3850 2588 3828 2450 
Q 3806 2313 3781 2163 
Q 3681 1944 3587 1775 
Q 3494 1606 3438 1481 
Q 3406 1450 3384 1409 
Q 3363 1369 3338 1325 
Q 3325 1306 3306 1268 
Q 3288 1231 3275 1219 
L 3150 1263 
L 3125 1106 
L 3038 1081 
L 2975 1006 
Q 2856 800 2725 659 
Q 2594 519 2428 409 
Q 2263 300 2053 206 
Q 1844 113 1581 0 
Q 1475 13 1397 16 
Q 1319 19 1250 25 
Q 1131 25 956 44 
Q 938 94 900 112 
Q 863 131 831 131 
Q 725 181 672 278 
Q 619 375 569 488 
Q 538 556 506 615 
Q 475 675 438 738 
L 544 769 
L 406 919 
Q 394 938 375 953 
Q 356 969 344 988 
L 338 1088 
Q 319 1519 322 1878 
Q 325 2238 419 2519 
L 419 2588 
Q 438 2725 456 2815 
Q 475 2906 488 2988 
Q 506 3125 544 3244 
Q 631 3263 675 3316 
Q 719 3369 750 3413 
Q 838 3419 869 3387 
Q 900 3356 931 3288 
Q 963 3231 1009 3162 
Q 1056 3094 1150 3056 
Q 1163 3006 1184 2953 
Q 1206 2900 1231 2838 
Q 1281 2731 1322 2615 
Q 1363 2500 1369 2394 
Q 1306 2275 1272 2119 
Q 1238 1963 1228 1803 
Q 1219 1644 1234 1497 
Q 1250 1350 1288 1250 
L 1325 1169 
L 1431 1181 
Q 1619 1231 1772 1290 
Q 1925 1350 2056 1431 
Q 2188 1513 2306 1622 
Q 2425 1731 2556 1875 
Q 2688 2019 2784 2203 
Q 2881 2388 2947 2588 
Q 3013 2788 3047 2984 
Q 3081 3181 3094 3356 
Q 3200 3394 3200 3506 
L 3188 3575 
Q 3163 3613 3188 3663 
Q 3225 3781 3363 3844 
Q 3463 3781 3541 3706 
Q 3619 3631 3688 3556 
z
" transform="scale(0.015625)"/>
      <path id="PermanentMarker-Regular-68" d="M 3200 606 
Q 3213 444 3163 337 
Q 3113 231 3025 156 
Q 2938 81 2825 37 
Q 2713 -6 2606 -44 
Q 2556 -13 2509 21 
Q 2463 56 2400 75 
Q 2319 225 2244 340 
Q 2169 456 2175 606 
Q 2175 613 2184 675 
Q 2194 738 2209 813 
Q 2225 888 2234 953 
Q 2244 1019 2244 1025 
Q 2100 1013 1944 963 
Q 1788 913 1641 844 
Q 1494 775 1366 706 
Q 1238 638 1156 588 
Q 1156 569 1131 497 
Q 1106 425 1068 347 
Q 1031 269 987 206 
Q 944 144 900 144 
Q 906 125 918 106 
Q 931 88 919 56 
Q 831 31 762 -9 
Q 694 -50 619 -78 
Q 544 -106 456 -106 
Q 369 -106 250 -44 
Q 250 -6 219 22 
Q 188 50 153 72 
Q 119 94 94 109 
Q 69 125 69 138 
Q 38 131 44 181 
Q 50 231 94 206 
Q 25 294 9 359 
Q -6 425 -63 525 
Q -50 538 -40 569 
Q -31 600 -25 625 
Q -19 650 -6 662 
Q 6 675 25 656 
Q 13 713 25 750 
Q 38 788 50 819 
Q 63 850 69 881 
Q 75 913 50 950 
Q 150 1088 181 1247 
Q 213 1406 219 1538 
Q 263 1581 297 1662 
Q 331 1744 350 1828 
Q 369 1913 366 1991 
Q 363 2069 344 2119 
Q 350 2150 413 2138 
Q 450 2344 465 2603 
Q 481 2863 518 3097 
Q 556 3331 643 3509 
Q 731 3688 925 3744 
Q 963 3613 1022 3513 
Q 1081 3413 1153 3322 
Q 1225 3231 1297 3137 
Q 1369 3044 1431 2925 
Q 1425 2806 1406 2650 
Q 1388 2494 1359 2331 
Q 1331 2169 1303 2019 
Q 1275 1869 1250 1763 
Q 1256 1731 1284 1725 
Q 1313 1719 1294 1669 
Q 1444 1706 1606 1737 
Q 1769 1769 1931 1806 
Q 2094 1844 2247 1891 
Q 2400 1938 2531 2006 
Q 2563 2250 2613 2494 
Q 2663 2738 2625 2994 
Q 2656 3019 2675 3056 
Q 2694 3094 2738 3106 
Q 2706 3225 2712 3356 
Q 2719 3488 2759 3606 
Q 2800 3725 2878 3809 
Q 2956 3894 3069 3919 
Q 3138 3819 3188 3703 
Q 3238 3588 3291 3472 
Q 3344 3356 3403 3253 
Q 3463 3150 3556 3075 
Q 3575 2894 3584 2700 
Q 3594 2506 3600 2306 
Q 3550 2069 3490 1847 
Q 3431 1625 3406 1375 
Q 3363 1325 3338 1262 
Q 3313 1200 3288 1134 
Q 3263 1069 3231 1009 
Q 3200 950 3156 906 
Q 3181 831 3165 765 
Q 3150 700 3200 606 
z
" transform="scale(0.015625)"/>
      <path id="PermanentMarker-Regular-65" d="M 3488 3519 
Q 3494 3475 3491 3453 
Q 3488 3431 3484 3412 
Q 3481 3394 3481 3372 
Q 3481 3350 3494 3306 
Q 3363 3094 3191 3016 
Q 3019 2938 2819 2903 
Q 2619 2869 2409 2831 
Q 2200 2794 1994 2669 
Q 1913 2700 1847 2669 
Q 1781 2638 1656 2650 
Q 1619 2613 1562 2597 
Q 1506 2581 1450 2563 
Q 1475 2506 1472 2447 
Q 1469 2388 1488 2350 
Q 1706 2331 1972 2356 
Q 2238 2381 2494 2388 
Q 2500 2356 2487 2347 
Q 2475 2338 2481 2313 
Q 2525 2281 2569 2234 
Q 2613 2188 2656 2144 
Q 2700 2100 2747 2072 
Q 2794 2044 2856 2050 
Q 2881 2000 2890 1940 
Q 2900 1881 2875 1819 
Q 2775 1750 2675 1678 
Q 2575 1606 2465 1550 
Q 2356 1494 2234 1459 
Q 2113 1425 1963 1431 
Q 1931 1431 1915 1431 
Q 1900 1431 1875 1450 
Q 1825 1419 1734 1431 
Q 1644 1444 1594 1413 
Q 1525 1444 1428 1441 
Q 1331 1438 1256 1463 
Q 1156 1331 1075 1181 
Q 994 1031 931 863 
Q 1144 831 1284 837 
Q 1425 844 1550 859 
Q 1675 875 1806 890 
Q 1938 906 2138 900 
Q 2263 969 2434 991 
Q 2606 1013 2750 1063 
Q 2800 1044 2837 997 
Q 2875 950 2909 909 
Q 2944 869 2981 837 
Q 3019 806 3075 813 
Q 3100 788 3109 753 
Q 3119 719 3125 687 
Q 3131 656 3147 634 
Q 3163 613 3200 619 
Q 3106 413 2984 303 
Q 2863 194 2706 137 
Q 2550 81 2359 50 
Q 2169 19 1938 -25 
Q 1881 -38 1843 -22 
Q 1806 -6 1756 -6 
Q 1613 -38 1413 -63 
Q 1213 -88 1006 -81 
Q 800 -75 612 -28 
Q 425 19 306 138 
Q 256 181 240 240 
Q 225 300 156 331 
Q 150 413 131 513 
Q 113 613 94 722 
Q 75 831 65 937 
Q 56 1044 75 1131 
Q 94 1225 153 1300 
Q 213 1375 194 1463 
Q 225 1469 231 1497 
Q 238 1525 281 1519 
Q 319 1631 362 1731 
Q 406 1831 453 1925 
Q 500 2019 547 2116 
Q 594 2213 638 2331 
Q 550 2413 509 2509 
Q 469 2606 450 2703 
Q 431 2800 418 2903 
Q 406 3006 375 3113 
Q 438 3206 528 3265 
Q 619 3325 725 3362 
Q 831 3400 956 3425 
Q 1081 3450 1219 3481 
Q 1469 3563 1666 3606 
Q 1863 3650 2053 3678 
Q 2244 3706 2450 3731 
Q 2656 3756 2919 3806 
Q 2975 3750 3025 3750 
Q 3050 3806 3084 3784 
Q 3119 3763 3113 3819 
Q 3175 3713 3272 3641 
Q 3369 3569 3488 3519 
z
" transform="scale(0.015625)"/>
      <path id="PermanentMarker-Regular-72" d="M 1006 650 
Q 938 400 884 272 
Q 831 144 725 6 
Q 644 19 612 -12 
Q 581 -44 544 -69 
Q 488 -81 463 -68 
Q 438 -56 419 -40 
Q 400 -25 372 -9 
Q 344 6 288 6 
Q 275 56 259 100 
Q 244 144 175 131 
Q 188 181 181 215 
Q 175 250 165 278 
Q 156 306 150 334 
Q 144 363 156 406 
Q 125 406 106 450 
Q 88 494 63 538 
Q 81 650 100 750 
Q 119 850 147 937 
Q 175 1025 194 1112 
Q 213 1200 175 1294 
Q 200 1275 212 1303 
Q 225 1331 231 1378 
Q 238 1425 238 1472 
Q 238 1519 231 1550 
Q 294 1713 334 1884 
Q 375 2056 409 2225 
Q 444 2394 481 2556 
Q 519 2719 581 2856 
Q 650 2869 734 2841 
Q 819 2813 838 2769 
Q 1000 2894 1125 3072 
Q 1250 3250 1381 3419 
Q 1513 3588 1672 3719 
Q 1831 3850 2075 3875 
Q 2200 3781 2353 3684 
Q 2506 3588 2606 3431 
Q 2656 3406 2690 3378 
Q 2725 3350 2775 3319 
L 2775 3244 
Q 2850 3175 2897 3084 
Q 2944 2994 2981 2891 
Q 3019 2788 3056 2684 
Q 3094 2581 3144 2488 
Q 3131 2456 3131 2434 
Q 3131 2413 3140 2388 
Q 3150 2363 3156 2338 
Q 3163 2313 3156 2269 
Q 3138 1994 2978 1825 
Q 2819 1656 2594 1547 
Q 2369 1438 2112 1363 
Q 1856 1288 1650 1200 
Q 1650 1175 1672 1175 
Q 1694 1175 1688 1144 
Q 1838 1050 1925 994 
Q 2013 938 2091 900 
Q 2169 863 2259 834 
Q 2350 806 2513 769 
Q 2675 731 2765 709 
Q 2856 688 2931 672 
Q 3006 656 3084 647 
Q 3163 638 3306 625 
Q 3363 569 3403 491 
Q 3444 413 3456 334 
Q 3469 256 3462 184 
Q 3456 113 3419 69 
Q 3425 50 3447 53 
Q 3469 56 3494 50 
Q 3456 25 3431 -12 
Q 3406 -50 3381 -87 
Q 3356 -125 3325 -153 
Q 3294 -181 3238 -188 
Q 3044 -263 2750 -197 
Q 2456 -131 2006 44 
Q 1781 131 1640 197 
Q 1500 263 1397 328 
Q 1294 394 1209 469 
Q 1125 544 1006 650 
z
M 1900 2794 
Q 1831 2694 1747 2612 
Q 1663 2531 1584 2447 
Q 1506 2363 1443 2259 
Q 1381 2156 1356 2019 
Q 1575 2044 1812 2141 
Q 2050 2238 2263 2325 
Q 2238 2519 2128 2637 
Q 2019 2756 1900 2794 
z
" transform="scale(0.015625)"/>
      <path id="PermanentMarker-Regular-6c" d="M 1650 69 
Q 1475 13 1269 -43 
Q 1063 -100 856 -100 
Q 544 -100 363 56 
Q 331 125 306 150 
Q 288 175 272 203 
Q 256 231 250 281 
Q 175 369 131 484 
Q 88 600 72 722 
Q 56 844 65 969 
Q 75 1094 106 1206 
Q 119 1231 122 1256 
Q 125 1281 131 1313 
Q 156 1413 184 1506 
Q 213 1600 263 1669 
Q 238 1725 263 1794 
Q 288 1863 319 1919 
Q 406 2156 465 2322 
Q 525 2488 588 2650 
Q 694 2931 787 3206 
Q 881 3481 956 3800 
Q 1006 3831 1031 3844 
Q 1069 3856 1094 3863 
Q 1206 3806 1356 3753 
Q 1506 3700 1606 3700 
Q 1656 3669 1668 3653 
Q 1681 3638 1694 3625 
Q 1763 3544 1813 3459 
Q 1863 3375 1844 3238 
Q 1806 3181 1788 3181 
Q 1756 3056 1722 2968 
Q 1688 2881 1650 2794 
Q 1606 2700 1568 2606 
Q 1531 2513 1506 2375 
Q 1481 2344 1472 2319 
Q 1463 2294 1450 2263 
Q 1438 2231 1422 2197 
Q 1406 2163 1375 2138 
Q 1356 1975 1315 1875 
Q 1275 1775 1231 1675 
Q 1156 1494 1097 1312 
Q 1038 1131 1025 900 
Q 1056 913 1084 913 
Q 1113 913 1138 913 
Q 1194 913 1269 894 
Q 1456 994 1678 1012 
Q 1900 1031 2119 1038 
Q 2206 1038 2293 1038 
Q 2381 1038 2456 1050 
Q 2513 1019 2528 1016 
Q 2544 1013 2575 1013 
Q 2619 1013 2650 1006 
Q 2725 938 2794 906 
Q 2863 875 2938 850 
Q 3006 825 3072 797 
Q 3138 769 3200 719 
L 3244 450 
Q 3288 394 3281 375 
Q 3281 325 3256 300 
L 3269 231 
Q 3175 213 3140 188 
Q 3106 163 3075 131 
Q 3025 125 3003 125 
Q 2981 125 2963 125 
Q 2875 125 2750 94 
Q 2581 150 2400 150 
Q 2331 150 2256 144 
Q 2181 138 2106 131 
Q 2031 119 1953 112 
Q 1875 106 1794 106 
L 1650 69 
z
" transform="scale(0.015625)"/>
      <path id="PermanentMarker-Regular-6e" d="M 1281 1138 
Q 1225 1125 1200 1072 
Q 1175 1019 1153 962 
Q 1131 906 1109 859 
Q 1088 813 1044 813 
Q 1038 763 1009 725 
Q 981 688 956 647 
Q 931 606 918 559 
Q 906 513 931 450 
Q 881 413 868 344 
Q 856 275 840 212 
Q 825 150 787 106 
Q 750 63 650 69 
Q 631 44 643 37 
Q 656 31 663 -6 
Q 594 6 559 -16 
Q 525 -38 475 -44 
Q 356 -6 278 87 
Q 200 181 140 297 
Q 81 413 34 531 
Q -13 650 -56 738 
Q -38 806 -50 872 
Q -63 938 -94 981 
Q 213 1631 575 2368 
Q 938 3106 1263 3825 
Q 1406 3769 1547 3697 
Q 1688 3625 1803 3531 
Q 1919 3438 2000 3316 
Q 2081 3194 2106 3044 
Q 2094 3006 2078 3015 
Q 2063 3025 2050 3006 
Q 2075 2975 2078 2962 
Q 2081 2950 2078 2937 
Q 2075 2925 2075 2903 
Q 2075 2881 2094 2844 
Q 2069 2850 2059 2837 
Q 2050 2825 2019 2838 
Q 2044 2769 2034 2725 
Q 2025 2681 2006 2647 
Q 1988 2613 1975 2572 
Q 1963 2531 1981 2469 
Q 1963 2469 1953 2459 
Q 1944 2450 1937 2440 
Q 1931 2431 1922 2422 
Q 1913 2413 1894 2419 
Q 1913 2281 1906 2143 
Q 1900 2006 1897 1865 
Q 1894 1725 1900 1572 
Q 1906 1419 1944 1256 
Q 2169 1388 2303 1594 
Q 2438 1800 2522 2056 
Q 2606 2313 2650 2606 
Q 2694 2900 2744 3206 
Q 2800 3263 2831 3344 
Q 2863 3425 2888 3515 
Q 2913 3606 2938 3697 
Q 2963 3788 3000 3863 
Q 3094 3850 3159 3803 
Q 3225 3756 3281 3703 
Q 3338 3650 3400 3603 
Q 3463 3556 3556 3544 
Q 3631 3438 3693 3338 
Q 3756 3238 3775 3125 
Q 3744 3075 3728 3012 
Q 3713 2950 3694 2887 
Q 3675 2825 3644 2772 
Q 3613 2719 3556 2681 
Q 3538 2519 3509 2384 
Q 3481 2250 3453 2119 
Q 3425 1988 3406 1847 
Q 3388 1706 3394 1538 
Q 3344 1394 3287 1231 
Q 3231 1069 3200 938 
Q 3100 856 3044 743 
Q 2988 631 2925 519 
Q 2900 494 2894 506 
Q 2888 519 2850 525 
Q 2856 500 2850 487 
Q 2844 475 2834 465 
Q 2825 456 2822 437 
Q 2819 419 2831 388 
Q 2744 350 2675 281 
Q 2606 213 2528 156 
Q 2450 100 2340 81 
Q 2231 63 2056 125 
Q 1800 313 1603 556 
Q 1406 800 1281 1138 
z
" transform="scale(0.015625)"/>
      <path id="PermanentMarker-Regular-64" d="M 3081 1688 
Q 3075 1656 3069 1634 
Q 3063 1613 3056 1594 
Q 3050 1575 3050 1547 
Q 3050 1519 3050 1475 
Q 2863 1144 2578 919 
Q 2294 694 1953 522 
Q 1613 350 1244 209 
Q 875 69 525 -94 
Q 375 -56 297 31 
Q 219 119 178 234 
Q 138 350 122 490 
Q 106 631 94 781 
Q 113 850 147 897 
Q 181 944 181 1031 
Q 231 1194 281 1350 
Q 331 1506 344 1669 
Q 363 1719 413 1738 
Q 444 2038 416 2347 
Q 388 2656 313 2925 
Q 319 2988 328 3016 
Q 338 3044 325 3056 
Q 319 3106 359 3106 
Q 400 3106 444 3106 
Q 444 3200 409 3294 
Q 375 3388 344 3506 
Q 388 3600 400 3690 
Q 413 3781 456 3850 
Q 794 3744 1103 3594 
Q 1413 3444 1713 3375 
Q 1938 3213 2175 3053 
Q 2413 2894 2606 2703 
Q 2800 2513 2931 2269 
Q 3063 2025 3081 1688 
z
M 1600 1344 
Q 1731 1394 1859 1450 
Q 1988 1506 2097 1578 
Q 2206 1650 2293 1744 
Q 2381 1838 2438 1969 
Q 2400 2044 2337 2103 
Q 2275 2163 2212 2216 
Q 2150 2269 2090 2325 
Q 2031 2381 1994 2463 
Q 1913 2475 1850 2509 
Q 1788 2544 1728 2578 
Q 1669 2613 1603 2644 
Q 1538 2675 1450 2681 
Q 1313 2750 1203 2781 
Q 1094 2813 1038 2863 
Q 994 2863 969 2844 
Q 1031 2606 1062 2397 
Q 1094 2188 1097 1978 
Q 1100 1769 1075 1550 
Q 1050 1331 1006 1075 
Q 1069 1081 1122 1103 
Q 1175 1125 1228 1150 
Q 1281 1175 1340 1197 
Q 1400 1219 1481 1225 
Q 1500 1263 1534 1288 
Q 1569 1313 1600 1344 
z
" transform="scale(0.015625)"/>
     </defs>
     <use xlink:href="#PermanentMarker-Regular-4d"/>
     <use xlink:href="#PermanentMarker-Regular-61" x="97.363281"/>
     <use xlink:href="#PermanentMarker-Regular-74" x="150.46875"/>
     <use xlink:href="#PermanentMarker-Regular-74" x="198.417969"/>
     <use xlink:href="#PermanentMarker-Regular-20" x="246.367188"/>
     <use xlink:href="#PermanentMarker-Regular-53" x="283.378906"/>
     <use xlink:href="#PermanentMarker-Regular-75" x="340.996094"/>
     <use xlink:href="#PermanentMarker-Regular-74" x="399.492188"/>
     <use xlink:href="#PermanentMarker-Regular-68" x="447.441406"/>
     <use xlink:href="#PermanentMarker-Regular-65" x="505.644531"/>
     <use xlink:href="#PermanentMarker-Regular-72" x="556.792969"/>
     <use xlink:href="#PermanentMarker-Regular-6c" x="610.894531"/>
     <use xlink:href="#PermanentMarker-Regular-61" x="664.214844"/>
     <use xlink:href="#PermanentMarker-Regular-6e" x="722.320312"/>
     <use xlink:href="#PermanentMarker-Regular-64" x="778.765625"/>
    </g>
   </g>
  </g>
 </g>
</svg>
