<?xml version="1.0" encoding="utf-8" standalone="no"?>
<!DOCTYPE svg PUBLIC "-//W3C//DTD SVG 1.1//EN"
  "http://www.w3.org/Graphics/SVG/1.1/DTD/svg11.dtd">
<svg xmlns:xlink="http://www.w3.org/1999/xlink" width="268.155pt" height="21.635122pt" viewBox="0 0 268.155 21.635122" xmlns="http://www.w3.org/2000/svg" version="1.1">
 <metadata>
  <rdf:RDF xmlns:dc="http://purl.org/dc/elements/1.1/" xmlns:cc="http://creativecommons.org/ns#" xmlns:rdf="http://www.w3.org/1999/02/22-rdf-syntax-ns#">
   <cc:Work>
    <dc:type rdf:resource="http://purl.org/dc/dcmitype/StillImage"/>
    <dc:date>2024-07-23T23:34:45.862682</dc:date>
    <dc:format>image/svg+xml</dc:format>
    <dc:creator>
     <cc:Agent>
      <dc:title>Matplotlib v3.9.1, https://matplotlib.org/</dc:title>
     </cc:Agent>
    </dc:creator>
   </cc:Work>
  </rdf:RDF>
 </metadata>
 <defs>
  <style type="text/css">*{stroke-linejoin: round; stroke-linecap: butt}</style>
 </defs>
 <g id="figure_1">
  <g id="patch_1">
   <path d="M 0 21.635122 
L 268.155 21.635122 
L 268.155 0 
L 0 0 
L 0 21.635122 
z
" style="fill: none"/>
  </g>
  <g id="axes_1">
   <g id="text_1">
    <!-- Matt Sutherland DEV -->
    <g style="fill: #ff0000" transform="translate(0 17.338811) scale(0.24 -0.24)">
     <defs>
      <path id="BlackOpsOne-Regular-4d" d="M 2828 0 
L 369 4147 
L 1838 4147 
L 2950 2303 
L 3825 3803 
L 3825 1716 
L 2828 0 
z
M 4028 0 
L 4028 4147 
L 5409 4147 
L 5409 0 
L 4028 0 
z
M 366 0 
L 366 3763 
L 1656 1597 
L 1656 0 
L 366 0 
z
" transform="scale(0.015625)"/>
      <path id="BlackOpsOne-Regular-61" d="M 2513 0 
L 2513 2491 
L 547 2491 
L 547 2903 
L 963 3319 
L 3034 3319 
L 3863 2491 
L 3863 0 
L 2513 0 
z
M 825 0 
L 269 547 
L 269 1378 
L 825 1931 
L 2294 1931 
L 2294 1356 
L 1581 1356 
L 1581 775 
L 2294 775 
L 2294 409 
L 1881 0 
L 825 0 
z
" transform="scale(0.015625)"/>
      <path id="BlackOpsOne-Regular-74" d="M 1225 0 
L 394 828 
L 394 2491 
L 119 2491 
L 119 3319 
L 394 3319 
L 394 3678 
L 1775 4147 
L 1775 828 
L 2688 828 
L 2688 0 
L 1225 0 
z
M 1994 2491 
L 1994 3319 
L 2738 3319 
L 2738 2491 
L 1994 2491 
z
" transform="scale(0.015625)"/>
      <path id="BlackOpsOne-Regular-20" transform="scale(0.015625)"/>
      <path id="BlackOpsOne-Regular-53" d="M 2928 0 
L 2928 1553 
L 1134 1553 
L 303 2384 
L 303 3319 
L 1134 4147 
L 1603 4147 
L 1603 2675 
L 3509 2675 
L 4313 1844 
L 4313 828 
L 3484 0 
L 2928 0 
z
M 2928 2984 
L 2928 3400 
L 1822 3400 
L 1822 4147 
L 3481 4147 
L 4200 3425 
L 4200 2984 
L 2928 2984 
z
M 1000 0 
L 303 828 
L 303 1244 
L 1684 1244 
L 1684 750 
L 2709 750 
L 2709 0 
L 1000 0 
z
" transform="scale(0.015625)"/>
      <path id="BlackOpsOne-Regular-75" d="M 1128 0 
L 297 828 
L 297 3319 
L 1678 3319 
L 1678 828 
L 2294 828 
L 2294 416 
L 1894 0 
L 1128 0 
z
M 2513 0 
L 2513 3319 
L 3894 3319 
L 3894 0 
L 2513 0 
z
" transform="scale(0.015625)"/>
      <path id="BlackOpsOne-Regular-68" d="M 325 0 
L 325 4584 
L 1706 4584 
L 1706 0 
L 325 0 
z
M 2534 0 
L 2534 2491 
L 1925 2491 
L 1925 2909 
L 2331 3319 
L 3088 3319 
L 3919 2491 
L 3919 0 
L 2534 0 
z
" transform="scale(0.015625)"/>
      <path id="BlackOpsOne-Regular-65" d="M 1125 0 
L 297 828 
L 297 2491 
L 1125 3319 
L 1678 3319 
L 1678 0 
L 1125 0 
z
M 1897 1331 
L 1897 1909 
L 2625 1909 
L 2625 2491 
L 1897 2491 
L 1897 3319 
L 3069 3319 
L 3897 2491 
L 3897 1331 
L 1897 1331 
z
M 1897 0 
L 1897 775 
L 3753 775 
L 3753 416 
L 3341 0 
L 1897 0 
z
" transform="scale(0.015625)"/>
      <path id="BlackOpsOne-Regular-72" d="M 325 0 
L 325 3319 
L 1706 3319 
L 1706 0 
L 325 0 
z
M 2516 1684 
L 2516 2491 
L 1928 2491 
L 1928 2853 
L 2391 3319 
L 3228 3319 
L 3900 2544 
L 3900 1684 
L 2516 1684 
z
" transform="scale(0.015625)"/>
      <path id="BlackOpsOne-Regular-6c" d="M 1100 0 
L 325 775 
L 325 4584 
L 1706 4584 
L 1706 828 
L 2325 828 
L 2325 0 
L 1100 0 
z
" transform="scale(0.015625)"/>
      <path id="BlackOpsOne-Regular-6e" d="M 2538 0 
L 2538 2491 
L 1944 2491 
L 1944 2853 
L 2406 3319 
L 3175 3319 
L 3922 2572 
L 3922 0 
L 2538 0 
z
M 325 0 
L 325 3319 
L 1719 3319 
L 1719 0 
L 325 0 
z
" transform="scale(0.015625)"/>
      <path id="BlackOpsOne-Regular-64" d="M 2563 0 
L 2563 4584 
L 3944 4584 
L 3944 0 
L 2563 0 
z
M 1044 0 
L 297 747 
L 297 2572 
L 1044 3319 
L 2344 3319 
L 2344 2491 
L 1678 2491 
L 1678 775 
L 2344 775 
L 2344 328 
L 2016 0 
L 1044 0 
z
" transform="scale(0.015625)"/>
      <path id="BlackOpsOne-Regular-44" d="M 1966 0 
L 1966 828 
L 2991 828 
L 2991 3319 
L 1966 3319 
L 1966 4147 
L 3544 4147 
L 4375 3319 
L 4375 828 
L 3544 0 
L 1966 0 
z
M 366 0 
L 366 4147 
L 1747 4147 
L 1747 0 
L 366 0 
z
" transform="scale(0.015625)"/>
      <path id="BlackOpsOne-Regular-45" d="M 366 0 
L 366 4147 
L 1747 4147 
L 1747 2503 
L 3069 2503 
L 3069 1703 
L 1747 1703 
L 1747 0 
L 366 0 
z
M 2825 2947 
L 2825 3344 
L 1966 3344 
L 1966 4147 
L 4125 4147 
L 4125 2947 
L 2825 2947 
z
M 1966 0 
L 1966 828 
L 2744 828 
L 2744 1244 
L 4125 1244 
L 4125 0 
L 1966 0 
z
" transform="scale(0.015625)"/>
      <path id="BlackOpsOne-Regular-56" d="M 1419 0 
L -81 4147 
L 1328 4147 
L 2763 0 
L 1419 0 
z
M 2931 125 
L 2309 1950 
L 2978 4147 
L 4366 4147 
L 2931 125 
z
" transform="scale(0.015625)"/>
     </defs>
     <use xlink:href="#BlackOpsOne-Regular-4d"/>
     <use xlink:href="#BlackOpsOne-Regular-61" x="90.234375"/>
     <use xlink:href="#BlackOpsOne-Regular-74" x="155.224609"/>
     <use xlink:href="#BlackOpsOne-Regular-74" x="200.683594"/>
     <use xlink:href="#BlackOpsOne-Regular-20" x="246.142578"/>
     <use xlink:href="#BlackOpsOne-Regular-53" x="272.021484"/>
     <use xlink:href="#BlackOpsOne-Regular-75" x="344.140625"/>
     <use xlink:href="#BlackOpsOne-Regular-74" x="410.058594"/>
     <use xlink:href="#BlackOpsOne-Regular-68" x="455.517578"/>
     <use xlink:href="#BlackOpsOne-Regular-65" x="521.679688"/>
     <use xlink:href="#BlackOpsOne-Regular-72" x="586.669922"/>
     <use xlink:href="#BlackOpsOne-Regular-6c" x="648.193359"/>
     <use xlink:href="#BlackOpsOne-Regular-61" x="684.960938"/>
     <use xlink:href="#BlackOpsOne-Regular-6e" x="749.951172"/>
     <use xlink:href="#BlackOpsOne-Regular-64" x="816.162109"/>
     <use xlink:href="#BlackOpsOne-Regular-20" x="882.861328"/>
     <use xlink:href="#BlackOpsOne-Regular-44" x="908.740234"/>
     <use xlink:href="#BlackOpsOne-Regular-45" x="981.298828"/>
     <use xlink:href="#BlackOpsOne-Regular-56" x="1050.390625"/>
    </g>
   </g>
  </g>
 </g>
</svg>
